<svg width="370" height="338" viewBox="0 0 370 338" fill="none" xmlns="http://www.w3.org/2000/svg">
<g clip-path="url(#clip0_13_250)">
<path d="M370 215.998C250.274 205.609 130.548 220.165 10.8213 209.756C10.8213 142.524 10.8213 75.2911 10.8213 8.05846C130.548 14.3195 250.274 -4.40446 370 1.83687V215.998Z" fill="#00A19A"/>
<path d="M62.8306 77.5625C60.971 77.4835 59.1312 77.3847 57.2716 77.2859V40.4107C60.9314 40.5885 64.611 40.7267 68.2709 40.8452C70.5261 40.9242 72.5044 41.2403 74.2057 41.8328C75.9071 42.4253 77.2919 43.2154 78.3997 44.2227C79.4878 45.23 80.3187 46.4348 80.8726 47.8174C81.4265 49.2197 81.7035 50.7208 81.7035 52.3601C81.7035 54.0389 81.4265 55.54 80.8726 56.9028C80.3187 58.2657 79.5076 59.431 78.3997 60.379C77.3117 61.3468 75.9071 62.0776 74.2057 62.5714C72.5044 63.0652 70.5261 63.2824 68.2709 63.2034C66.4508 63.1442 64.6308 63.0652 62.8108 62.9862V77.5625H62.8306ZM62.8306 58.0484C64.6506 58.1274 66.4706 58.2064 68.2906 58.2657C69.8733 58.3249 71.1592 58.1669 72.1681 57.7916C73.177 57.4164 73.9881 56.9424 74.5816 56.3696C75.1751 55.777 75.5905 55.1253 75.8082 54.3945C76.0258 53.6637 76.1445 52.9526 76.1445 52.2416C76.1445 51.5503 76.0258 50.8195 75.8082 50.0887C75.5905 49.3579 75.1751 48.6667 74.5816 48.0544C73.9881 47.4421 73.177 46.9088 72.1681 46.494C71.1592 46.0595 69.8535 45.8225 68.2906 45.783C66.4706 45.7237 64.6506 45.6645 62.8306 45.5855V58.0484Z" fill="#F6F6F6"/>
<path d="M91.4762 78.392C89.6958 78.3722 87.9153 78.3525 86.1348 78.313V41.2007C87.9153 41.2007 89.6958 41.2205 91.4762 41.2402V78.392Z" fill="#F6F6F6"/>
<path d="M121.784 78.3327V73.9875C121.784 73.9875 121.724 73.9875 121.685 73.9875C120.656 75.7256 119.271 77.0094 117.55 77.8587C115.809 78.708 113.969 79.1425 112.031 79.1425C109.637 79.1425 107.481 78.7475 105.601 77.9377C103.722 77.1082 102.119 76.0219 100.853 74.659C99.5674 73.2962 98.5981 71.7359 97.9255 69.9978C97.2528 68.2597 96.9165 66.4624 96.9165 64.6058C96.9165 62.8874 97.2331 61.1691 97.8463 59.431C98.4596 57.6929 99.3894 56.1128 100.656 54.671C101.902 53.2489 103.484 52.0638 105.364 51.1553C107.243 50.227 109.479 49.753 112.05 49.7332C114.029 49.7134 115.888 50.069 117.609 50.8393C119.331 51.6096 120.696 52.7354 121.724 54.2759C121.764 54.2759 121.784 54.2759 121.823 54.2759V50.3257C123.604 50.2862 125.384 50.2467 127.165 50.2072V78.2537C125.384 78.2932 123.604 78.313 121.823 78.3327H121.784ZM121.883 64.3687C121.883 62.8874 121.625 61.5246 121.111 60.3198C120.597 59.0952 119.885 58.0681 118.994 57.1991C118.104 56.3301 117.056 55.6783 115.849 55.2042C114.642 54.7302 113.356 54.513 111.991 54.5327C110.349 54.5525 108.905 54.8882 107.698 55.5203C106.472 56.1523 105.463 56.9621 104.632 57.9299C103.801 58.9174 103.208 59.984 102.812 61.1691C102.416 62.3541 102.218 63.4799 102.218 64.586C102.218 65.8698 102.456 67.0944 102.931 68.2597C103.405 69.425 104.078 70.4718 104.929 71.3804C105.779 72.2889 106.808 73.0197 108.015 73.553C109.222 74.106 110.507 74.3628 111.932 74.3628C113.336 74.3628 114.642 74.0863 115.849 73.5332C117.056 73 118.104 72.2692 118.994 71.3804C119.885 70.4718 120.597 69.425 121.111 68.2202C121.625 67.0154 121.883 65.7316 121.883 64.3885V64.3687Z" fill="#F6F6F6"/>
<path d="M140.241 77.9378C138.461 77.9773 136.68 78.0365 134.9 78.076V54.7895C133.614 54.829 132.328 54.8685 131.042 54.8883V50.069C132.328 50.0295 133.614 49.99 134.9 49.9505V40.5095C136.68 40.4502 138.461 40.391 140.241 40.3317V49.7727C141.804 49.7135 143.367 49.674 144.93 49.6147V54.434C143.367 54.4932 141.804 54.5327 140.241 54.592V77.8983V77.9378Z" fill="#F6F6F6"/>
<path d="M152.427 65.7711C152.764 67.1141 153.278 68.2597 153.951 69.2077C154.623 70.1558 155.395 70.9261 156.265 71.5186C157.136 72.1111 158.066 72.5457 159.015 72.8024C159.984 73.0592 160.895 73.1777 161.785 73.1382C163.763 73.0592 165.464 72.5259 166.849 71.4989C168.234 70.4718 169.263 69.346 169.916 68.0819C171.696 68.0029 173.476 67.9437 175.257 67.8647C174.565 69.741 173.674 71.3014 172.586 72.5852C171.478 73.8492 170.311 74.8763 169.065 75.6663C167.819 76.4564 166.533 77.0292 165.207 77.3847C163.882 77.76 162.675 77.9575 161.587 77.997C159.569 78.076 157.67 77.7402 155.909 76.9897C154.149 76.2589 152.605 75.2318 151.3 73.9085C149.994 72.5852 148.965 71.0446 148.214 69.267C147.462 67.4894 147.086 65.613 147.086 63.5984C147.086 61.5048 147.482 59.5297 148.253 57.6929C149.025 55.856 150.073 54.2364 151.399 52.8736C152.724 51.491 154.267 50.4047 156.028 49.5949C157.789 48.7851 159.688 48.3309 161.706 48.2321C163.625 48.1531 165.464 48.4296 167.205 49.1012C168.946 49.7529 170.489 50.701 171.834 51.9453C173.18 53.1896 174.228 54.671 175.02 56.409C175.811 58.1471 176.206 60.063 176.206 62.1369C176.206 62.6109 176.206 63.1442 176.147 63.7169C176.108 64.2897 176.088 64.6847 176.048 64.8428C168.175 65.1785 160.301 65.4748 152.447 65.7513L152.427 65.7711ZM170.845 60.9913C170.766 59.9642 170.509 58.9767 170.014 57.9891C169.54 57.0016 168.887 56.1523 168.056 55.4215C167.225 54.6907 166.275 54.1179 165.168 53.6834C164.06 53.2489 162.893 53.0711 161.626 53.1106C160.321 53.1699 159.134 53.4464 158.046 53.9599C156.958 54.4734 156.008 55.145 155.197 55.935C154.366 56.7251 153.713 57.6336 153.239 58.6607C152.764 59.6877 152.487 60.695 152.408 61.7221C158.54 61.5048 164.693 61.2678 170.826 61.011L170.845 60.9913Z" fill="#F6F6F6"/>
<path d="M181.686 76.5157V52.9921C180.855 53.0316 180.005 53.0711 179.174 53.1106C179.174 51.491 179.174 49.8715 179.174 48.2519C180.005 48.2124 180.855 48.1729 181.686 48.1334V46.7508C181.686 45.2102 181.983 43.9066 182.557 42.8203C183.131 41.734 183.981 40.786 185.069 39.9762C185.643 39.6009 186.197 39.3046 186.691 39.0676C187.186 38.8306 187.7 38.6529 188.235 38.5344C188.769 38.3961 189.323 38.3171 189.936 38.2381C190.529 38.1788 191.222 38.1196 192.013 38.0801C192.013 39.6997 192.013 41.339 192.013 42.9586C190.233 43.0376 188.947 43.4129 188.175 44.0449C187.404 44.6769 187.028 45.4867 187.028 46.494V47.8766C188.69 47.7976 190.351 47.7186 192.013 47.6396C192.013 49.2592 192.013 50.8985 192.013 52.5181C190.351 52.5971 188.69 52.6761 187.028 52.7354V76.2786C185.247 76.3576 183.467 76.4169 181.686 76.4959V76.5157Z" fill="#F6F6F6"/>
<path d="M224.022 60.4581C224.022 62.2159 223.666 64.0132 222.973 65.8303C222.261 67.6474 221.272 69.3065 219.966 70.8076C218.661 72.3087 217.058 73.553 215.139 74.5406C213.22 75.5479 211.064 76.0811 208.65 76.1799C206.257 76.2787 204.1 75.9034 202.201 75.0541C200.302 74.2245 198.68 73.1185 197.374 71.7162C196.049 70.3336 195.04 68.7535 194.347 66.9759C193.635 65.1983 193.299 63.4207 193.299 61.6036C193.299 59.6483 193.675 57.7719 194.446 55.9548C195.218 54.1377 196.286 52.5181 197.651 51.1158C199.016 49.6937 200.638 48.5284 202.518 47.6199C204.377 46.7113 206.435 46.1978 208.67 46.099C210.827 46.0003 212.844 46.3163 214.704 47.0273C216.564 47.7384 218.206 48.7457 219.59 50.0492C220.975 51.3528 222.063 52.9131 222.855 54.7105C223.646 56.5078 224.042 58.4237 224.042 60.4581H224.022ZM218.68 60.6556C218.68 59.3717 218.443 58.1472 217.968 56.9621C217.493 55.7771 216.821 54.7302 215.931 53.8217C215.06 52.9131 214.012 52.2021 212.765 51.6886C211.539 51.1751 210.154 50.9578 208.65 51.017C207.147 51.0763 205.762 51.4318 204.536 52.0441C203.309 52.6564 202.241 53.4662 201.37 54.4537C200.5 55.4413 199.808 56.5473 199.333 57.7917C198.858 59.036 198.621 60.2803 198.621 61.5444C198.621 62.8479 198.858 64.0922 199.333 65.2773C199.808 66.4624 200.5 67.5092 201.39 68.4375C202.28 69.3658 203.329 70.0768 204.555 70.6101C205.762 71.1236 207.127 71.3606 208.65 71.3014C210.095 71.2421 211.42 70.9261 212.627 70.3138C213.834 69.7213 214.902 68.9313 215.812 67.9437C216.722 66.9562 217.414 65.8501 217.929 64.586C218.423 63.322 218.68 62.0184 218.68 60.6753V60.6556Z" fill="#F6F6F6"/>
<path d="M229.482 74.7183V46.02C231.144 45.9607 232.805 45.9015 234.467 45.8422V48.4296C234.467 48.4296 234.527 48.4296 234.566 48.4296C235.12 47.6198 235.733 46.9681 236.445 46.494C237.158 46.02 237.85 45.6645 238.523 45.4077C239.215 45.151 239.848 44.9929 240.422 44.9337C240.996 44.8547 241.47 44.8152 241.807 44.8152V50.3652C241.391 50.3652 240.818 50.4837 240.066 50.6813C239.314 50.8788 238.602 51.1553 237.949 51.5305C237.098 52.0441 236.347 52.8736 235.733 54.0192C235.12 55.1647 234.804 56.7646 234.804 58.8384V74.5603C233.023 74.6195 231.243 74.659 229.462 74.7183H229.482Z" fill="#F6F6F6"/>
<path d="M285.131 73.9085C285.131 68.5164 285.131 63.1442 285.131 57.7521C285.131 57.1201 285.072 56.3103 284.973 55.3425C284.874 54.3549 284.597 53.4069 284.182 52.4786C283.746 51.5503 283.094 50.7405 282.184 50.0689C281.274 49.3777 280.007 49.0419 278.405 49.0616C276.684 49.0616 275.378 49.4172 274.468 50.1085C273.558 50.7997 272.886 51.6095 272.47 52.5378C272.035 53.4661 271.798 54.4142 271.718 55.4017C271.659 56.3695 271.62 57.1596 271.62 57.7521V73.9085C269.839 73.9085 268.059 73.9282 266.278 73.948C266.278 68.5954 266.278 63.2232 266.278 57.8706C266.318 56.6461 266.278 55.5992 266.159 54.7105C266.041 53.8217 265.685 52.8934 265.111 51.9256C264.419 50.8985 263.627 50.1875 262.697 49.8319C261.768 49.4567 260.818 49.2987 259.809 49.3184C258.068 49.3579 256.703 49.7332 255.754 50.4442C254.784 51.1553 254.092 51.9848 253.637 52.9329C253.182 53.8809 252.925 54.8487 252.865 55.8165C252.806 56.7843 252.766 57.5348 252.766 58.0484V74.1455C250.986 74.185 249.205 74.2245 247.425 74.264V45.4472C249.067 45.4077 250.709 45.3484 252.371 45.3089V48.4296C252.371 48.4296 252.43 48.4296 252.47 48.4296C252.707 48.1136 253.024 47.7383 253.419 47.284C253.815 46.8495 254.329 46.3953 254.962 45.9805C255.595 45.546 256.367 45.1707 257.277 44.8547C258.187 44.5386 259.315 44.3609 260.64 44.3411C261.491 44.3411 262.361 44.4201 263.271 44.5979C264.161 44.7954 265.012 45.0719 265.823 45.467C266.634 45.862 267.346 46.3557 267.979 46.9483C268.613 47.5408 269.127 48.2518 269.503 49.0419C269.74 48.6864 270.076 48.2321 270.472 47.6791C270.888 47.126 271.441 46.573 272.173 46.0397C272.886 45.5065 273.796 45.0522 274.884 44.6769C275.972 44.3016 277.317 44.1041 278.919 44.1041C281.313 44.1041 283.351 44.5584 285.032 45.4867C286.714 46.415 288.02 47.6988 288.949 49.3579C290.018 51.333 290.552 53.6834 290.552 56.4485V73.9875C288.771 73.9677 286.991 73.948 285.21 73.9282L285.131 73.9085Z" fill="#F6F6F6"/>
<path d="M301.215 61.9591C301.551 63.3614 302.065 64.586 302.738 65.5933C303.411 66.6006 304.182 67.4499 305.053 68.1412C305.923 68.8127 306.853 69.3263 307.802 69.6423C308.772 69.978 309.682 70.1558 310.572 70.1953C312.57 70.2743 314.252 69.8398 315.637 68.8917C317.021 67.9437 318.05 66.8574 318.703 65.6131C320.483 65.6921 322.264 65.7908 324.044 65.8698C323.352 67.7462 322.462 69.267 321.374 70.4916C320.266 71.6964 319.099 72.6642 317.852 73.3555C316.606 74.0468 315.32 74.5405 313.995 74.8171C312.669 75.0936 311.462 75.2121 310.374 75.1726C308.356 75.0936 306.457 74.6195 304.697 73.7505C302.936 72.8815 301.393 71.7161 300.087 70.2941C298.781 68.8522 297.753 67.2129 297.001 65.3365C296.249 63.4602 295.873 61.5048 295.873 59.431C295.873 57.2584 296.249 55.2438 297.021 53.3872C297.792 51.5306 298.841 49.911 300.166 48.5876C301.492 47.2446 303.035 46.1978 304.795 45.467C306.556 44.7362 308.455 44.4004 310.473 44.4597C312.392 44.5189 314.232 44.9534 315.973 45.783C317.714 46.6125 319.257 47.7186 320.602 49.1209C321.947 50.5232 322.996 52.1626 323.787 54.0389C324.578 55.9153 324.974 57.9299 324.974 60.0828C324.974 60.5765 324.974 61.1296 324.915 61.7221C324.875 62.3146 324.836 62.7097 324.816 62.8874C316.942 62.4726 309.069 62.1764 301.215 61.9986V61.9591ZM319.633 58.3644C319.554 57.2979 319.296 56.2511 318.802 55.1845C318.327 54.1179 317.674 53.1896 316.843 52.3601C316.012 51.5306 315.063 50.859 313.955 50.3257C312.847 49.7925 311.68 49.5159 310.414 49.4764C309.108 49.4369 307.921 49.6542 306.833 50.1085C305.745 50.5627 304.795 51.1948 303.984 51.9651C303.154 52.7354 302.501 53.6242 302.026 54.6512C301.551 55.6783 301.274 56.7053 301.195 57.7719C307.328 57.9101 313.46 58.1077 319.613 58.3842L319.633 58.3644Z" fill="#F6F6F6"/>
<path d="M86.2931 98.0443C86.0161 97.7283 85.5809 97.2938 85.0072 96.6815C84.4335 96.089 83.7015 95.4767 82.8113 94.8644C81.9409 94.2521 80.8924 93.7189 79.7054 93.2843C78.4986 92.8301 77.1336 92.5733 75.5905 92.5338C73.5925 92.4745 71.7527 92.7708 70.0315 93.4423C68.3104 94.1139 66.8267 95.0619 65.5606 96.2667C64.2945 97.4716 63.2856 98.9134 62.5536 100.612C61.8216 102.311 61.4458 104.108 61.4458 106.044C61.4458 108.038 61.8414 109.915 62.613 111.692C63.3845 113.47 64.4132 115.03 65.6991 116.393C66.985 117.756 68.4687 118.862 70.17 119.692C71.8714 120.521 73.6518 120.975 75.4916 121.054C77.5095 121.133 79.4284 120.758 81.2287 119.948C83.0289 119.119 84.572 117.973 85.8777 116.512C88.1527 116.571 90.4475 116.63 92.7226 116.67C91.6543 118.447 90.4475 119.968 89.0627 121.212C87.6977 122.457 86.2338 123.424 84.7105 124.155C83.1872 124.886 81.6243 125.38 80.0219 125.676C78.4195 125.972 76.8962 126.091 75.4125 126.032C72.7022 125.913 70.17 125.281 67.7961 124.135C65.4221 122.99 63.3647 121.469 61.604 119.613C59.8433 117.756 58.4388 115.623 57.41 113.233C56.3813 110.843 55.867 108.335 55.867 105.708C55.867 103.022 56.3813 100.553 57.4298 98.3011C58.4783 96.0495 59.8829 94.1336 61.6832 92.514C63.4636 90.8945 65.5408 89.6501 67.9148 88.8008C70.2887 87.9318 72.8012 87.5565 75.4719 87.6355C76.184 87.6553 77.0149 87.7343 77.9052 87.8528C78.8152 87.9713 79.7845 88.1886 80.8132 88.4848C81.8419 88.7811 82.8904 89.1761 83.9587 89.6699C85.027 90.1637 86.0755 90.7957 87.1042 91.5462C88.8253 92.7906 90.1112 93.9954 90.9619 95.1804C91.8125 96.3655 92.4852 97.3728 92.96 98.2221C90.7245 98.1826 88.5088 98.1431 86.2733 98.1036L86.2931 98.0443Z" fill="#F6F6F6"/>
<path d="M102.95 94.9039C101.17 94.9039 99.3894 94.8841 97.6089 94.8644V88.7218C99.3894 88.7218 101.17 88.7416 102.95 88.7613V94.9039ZM102.95 126.012C101.17 125.992 99.3894 125.972 97.6089 125.933V98.0838C99.3894 98.0838 101.17 98.1233 102.95 98.1233V126.012Z" fill="#F6F6F6"/>
<path d="M115.809 126.091C114.029 126.091 112.248 126.091 110.468 126.091V102.943C109.182 102.943 107.896 102.943 106.61 102.943C106.61 101.343 106.61 99.7429 106.61 98.1628C107.896 98.1628 109.182 98.1628 110.468 98.1628V88.7811C112.248 88.7811 114.029 88.7811 115.809 88.7416V98.1431C117.372 98.1431 118.935 98.1233 120.498 98.1036V102.903C118.935 102.903 117.372 102.923 115.809 102.943V126.111V126.091Z" fill="#F6F6F6"/>
<path d="M153.357 111.436C153.357 113.174 153.001 114.931 152.309 116.709C151.597 118.487 150.607 120.106 149.302 121.568C147.996 123.029 146.394 124.214 144.475 125.163C142.556 126.111 140.399 126.604 137.986 126.644C135.592 126.683 133.436 126.249 131.537 125.38C129.637 124.511 128.015 123.365 126.71 121.963C125.384 120.561 124.375 118.961 123.683 117.203C122.971 115.445 122.634 113.667 122.634 111.87C122.634 109.954 123.01 108.117 123.802 106.34C124.573 104.582 125.641 103.022 127.006 101.679C128.371 100.335 129.994 99.2294 131.873 98.3801C133.733 97.5308 135.79 97.0963 138.025 97.0568C140.182 97.0173 142.2 97.353 144.059 98.0838C145.919 98.8146 147.561 99.8417 148.946 101.145C150.33 102.449 151.418 103.989 152.21 105.767C153.001 107.545 153.397 109.441 153.397 111.436H153.357ZM148.016 111.574C148.016 110.31 147.778 109.105 147.304 107.92C146.829 106.755 146.136 105.708 145.266 104.779C144.396 103.871 143.347 103.14 142.101 102.607C140.874 102.074 139.489 101.817 137.986 101.856C136.482 101.896 135.098 102.192 133.871 102.765C132.644 103.338 131.576 104.108 130.706 105.036C129.835 105.984 129.163 107.051 128.668 108.256C128.193 109.46 127.956 110.685 127.956 111.929C127.956 113.213 128.193 114.438 128.668 115.623C129.143 116.808 129.835 117.855 130.726 118.783C131.616 119.711 132.664 120.462 133.891 120.995C135.117 121.528 136.463 121.805 137.986 121.765C139.43 121.746 140.755 121.449 141.962 120.896C143.169 120.343 144.237 119.573 145.147 118.625C146.057 117.677 146.75 116.591 147.264 115.346C147.759 114.122 148.016 112.838 148.016 111.515V111.574Z" fill="#F6F6F6"/>
<path d="M167.601 134.762C165.741 134.801 163.902 134.841 162.042 134.9C163.427 131.542 164.812 128.165 166.216 124.787C162.418 115.643 158.639 106.518 154.841 97.4123C156.76 97.3531 158.679 97.2938 160.598 97.2346C163.387 104.463 166.177 111.692 168.986 118.941C171.854 111.534 174.703 104.108 177.572 96.6815C179.49 96.6223 181.409 96.5433 183.328 96.484C178.086 109.302 172.843 122.062 167.581 134.781L167.601 134.762Z" fill="#F6F6F6"/>
<path d="M190.173 112.759C190.51 114.122 191.024 115.267 191.697 116.235C192.369 117.183 193.141 117.973 194.011 118.585C194.882 119.198 195.811 119.632 196.761 119.889C197.73 120.146 198.64 120.264 199.531 120.245C201.529 120.185 203.21 119.652 204.595 118.625C205.98 117.598 207.009 116.472 207.661 115.208C209.442 115.149 211.222 115.109 213.003 115.05C212.31 116.926 211.42 118.506 210.332 119.77C209.224 121.035 208.057 122.062 206.811 122.832C205.564 123.602 204.278 124.175 202.953 124.531C201.628 124.886 200.421 125.084 199.333 125.123C197.315 125.182 195.416 124.827 193.655 124.076C191.894 123.326 190.351 122.279 189.046 120.956C187.74 119.632 186.711 118.072 185.959 116.275C185.208 114.477 184.832 112.581 184.832 110.566C184.832 108.453 185.227 106.458 185.999 104.602C186.771 102.745 187.819 101.125 189.145 99.7429C190.47 98.3603 192.013 97.274 193.774 96.4445C195.534 95.6347 197.434 95.1804 199.451 95.1212C201.37 95.0619 203.21 95.3582 204.951 96.0297C206.692 96.7012 208.235 97.6691 209.58 98.9331C210.926 100.197 211.974 101.718 212.765 103.476C213.557 105.234 213.952 107.169 213.952 109.283C213.952 109.757 213.952 110.29 213.893 110.883C213.853 111.475 213.814 111.85 213.794 112.028C205.92 112.245 198.047 112.502 190.193 112.759H190.173ZM208.591 108.058C208.512 107.031 208.255 106.024 207.76 105.016C207.285 104.009 206.633 103.14 205.802 102.39C204.971 101.639 204.021 101.046 202.913 100.612C201.825 100.177 200.638 99.9602 199.372 100.019C198.067 100.059 196.88 100.335 195.792 100.869C194.704 101.382 193.754 102.034 192.943 102.844C192.112 103.634 191.459 104.562 190.984 105.589C190.51 106.616 190.233 107.643 190.153 108.67C196.286 108.473 202.439 108.275 208.571 108.078L208.591 108.058Z" fill="#F6F6F6"/>
<path d="M239.195 123.444V107.821C239.195 107.268 239.156 106.498 239.096 105.49C239.017 104.483 238.78 103.496 238.325 102.528C237.87 101.56 237.177 100.711 236.208 99.9997C235.239 99.2886 233.874 98.9726 232.093 99.0121C229.838 99.0714 228.018 99.8811 226.633 101.441C225.268 103.002 224.576 105.214 224.576 108.117V123.74C222.795 123.78 221.015 123.819 219.234 123.859C219.234 114.319 219.234 104.779 219.234 95.2199C220.896 95.1606 222.558 95.1211 224.22 95.0619V98.1233C224.22 98.1233 224.279 98.1233 224.319 98.1233C225.031 97.1357 225.822 96.3655 226.692 95.8322C227.543 95.2989 228.374 94.8841 229.165 94.6274C229.957 94.3706 230.669 94.2126 231.302 94.1533C231.935 94.0941 232.39 94.0743 232.667 94.0743C234.902 94.0151 236.881 94.4101 238.602 95.2791C240.323 96.1482 241.708 97.3728 242.736 98.9726C243.31 99.9009 243.765 100.948 244.042 102.113C244.339 103.278 244.497 104.681 244.537 106.32V123.365C242.756 123.385 240.976 123.424 239.195 123.444Z" fill="#F6F6F6"/>
<path d="M271.283 123.247V107.505C271.283 106.952 271.244 106.162 271.184 105.155C271.105 104.147 270.848 103.14 270.413 102.153C269.958 101.165 269.265 100.296 268.296 99.5651C267.327 98.8343 265.962 98.4788 264.181 98.4788C261.926 98.4788 260.106 99.2689 258.721 100.809C257.356 102.35 256.664 104.582 256.664 107.505V123.247C254.883 123.247 253.103 123.266 251.322 123.286V94.4496C252.984 94.4299 254.646 94.4101 256.308 94.3706V97.4518C256.308 97.4518 256.367 97.4518 256.406 97.4518C257.119 96.4642 257.91 95.7137 258.78 95.1804C259.631 94.6471 260.462 94.2521 261.253 94.0151C262.045 93.7583 262.757 93.6201 263.39 93.5806C264.023 93.5411 264.478 93.5213 264.755 93.5213C266.99 93.5213 268.969 93.9558 270.69 94.8644C272.411 95.7729 273.796 97.037 274.824 98.6961C275.418 99.6441 275.853 100.711 276.13 101.896C276.427 103.081 276.585 104.503 276.625 106.142V123.306C274.844 123.306 273.064 123.266 271.283 123.266V123.247Z" fill="#F6F6F6"/>
<path d="M287.387 111.297C287.723 112.7 288.237 113.904 288.91 114.912C289.582 115.919 290.354 116.768 291.224 117.44C292.095 118.111 293.025 118.605 293.974 118.921C294.944 119.237 295.854 119.415 296.744 119.454C298.742 119.514 300.423 119.079 301.808 118.131C303.193 117.183 304.222 116.097 304.875 114.852C306.655 114.931 308.436 114.991 310.216 115.07C309.524 116.946 308.633 118.487 307.545 119.691C306.457 120.916 305.27 121.864 304.024 122.575C302.778 123.286 301.492 123.78 300.166 124.056C298.841 124.333 297.634 124.471 296.546 124.432C294.528 124.372 292.629 123.898 290.868 123.029C289.108 122.16 287.565 121.015 286.259 119.593C284.953 118.171 283.924 116.531 283.173 114.655C282.421 112.798 282.045 110.823 282.045 108.769C282.045 106.597 282.421 104.582 283.193 102.725C283.964 100.869 285.013 99.2689 286.338 97.9258C287.663 96.5827 289.207 95.5359 290.967 94.8051C292.728 94.0744 294.627 93.7188 296.645 93.7781C298.564 93.8176 300.404 94.2521 302.145 95.0619C303.885 95.8717 305.429 96.9778 306.774 98.3603C308.119 99.7429 309.167 101.363 309.959 103.239C310.75 105.095 311.146 107.11 311.146 109.243C311.146 109.737 311.146 110.27 311.086 110.883C311.047 111.475 311.027 111.87 310.988 112.028C303.114 111.673 295.24 111.416 287.387 111.278V111.297ZM305.804 107.604C305.745 106.557 305.468 105.49 304.974 104.444C304.499 103.397 303.846 102.449 303.015 101.639C302.184 100.829 301.235 100.158 300.127 99.6244C299.019 99.0911 297.852 98.8146 296.586 98.7949C295.28 98.7554 294.093 98.9726 293.005 99.4466C291.917 99.9207 290.967 100.533 290.156 101.303C289.325 102.074 288.672 102.982 288.198 103.989C287.723 105.016 287.446 106.044 287.367 107.09C293.499 107.189 299.632 107.367 305.785 107.604H305.804Z" fill="#F6F6F6"/>
<path d="M79.0328 172.723C79.0328 167.351 79.0328 161.979 79.0328 156.606C73.8101 156.369 68.5676 156.093 63.3449 155.757V171.815C61.4853 171.696 59.6455 171.558 57.7859 171.42C57.7859 159.134 57.7859 146.829 57.7859 134.544C59.6455 134.663 61.4853 134.781 63.3449 134.9V150.819C68.5676 151.155 73.8101 151.431 79.0328 151.649C79.0328 146.316 79.0328 141.003 79.0328 135.67C80.8924 135.749 82.7322 135.808 84.5918 135.868V172.96C82.7322 172.881 80.8924 172.802 79.0328 172.703V172.723Z" fill="#F6F6F6"/>
<path d="M101.664 182.836C99.8048 182.796 97.965 182.737 96.1054 182.678C97.4902 179.438 98.875 176.199 100.28 172.94C96.4813 163.736 92.7028 154.532 88.9044 145.348C90.8234 145.407 92.7423 145.467 94.6613 145.506C97.4507 152.775 100.26 160.043 103.049 167.331C105.918 160.181 108.767 152.992 111.635 145.783C113.554 145.783 115.473 145.802 117.392 145.822C112.149 158.246 106.907 170.59 101.645 182.855L101.664 182.836Z" fill="#F6F6F6"/>
<path d="M125.285 162.117C125.622 163.46 126.136 164.625 126.809 165.593C127.481 166.561 128.253 167.351 129.123 167.983C129.994 168.615 130.923 169.069 131.873 169.346C132.823 169.622 133.752 169.78 134.643 169.78C136.621 169.78 138.322 169.286 139.707 168.319C141.092 167.351 142.12 166.245 142.773 165.02C144.554 165.02 146.334 164.981 148.115 164.961C147.422 166.798 146.532 168.338 145.444 169.563C144.356 170.787 143.169 171.775 141.923 172.506C140.676 173.237 139.39 173.77 138.065 174.106C136.74 174.422 135.533 174.599 134.445 174.599C132.427 174.599 130.528 174.204 128.767 173.414C127.006 172.624 125.463 171.538 124.158 170.195C122.852 168.832 121.823 167.272 121.071 165.474C120.32 163.677 119.944 161.801 119.944 159.806C119.944 157.712 120.32 155.777 121.111 153.979C121.883 152.182 122.931 150.622 124.257 149.298C125.582 147.975 127.125 146.948 128.886 146.197C130.646 145.447 132.546 145.072 134.563 145.052C136.482 145.052 138.322 145.388 140.063 146.099C141.804 146.81 143.347 147.797 144.692 149.061C146.038 150.325 147.086 151.846 147.877 153.604C148.669 155.362 149.064 157.278 149.064 159.332C149.064 159.806 149.064 160.339 149.005 160.912C148.965 161.485 148.926 161.86 148.906 162.038C141.032 162.137 133.159 162.176 125.305 162.156L125.285 162.117ZM143.683 157.969C143.624 156.962 143.347 155.954 142.852 154.947C142.378 153.96 141.725 153.071 140.894 152.32C140.063 151.57 139.114 150.957 138.006 150.503C136.898 150.049 135.731 149.812 134.465 149.812C133.159 149.812 131.972 150.069 130.884 150.543C129.796 151.017 128.846 151.649 128.035 152.399C127.204 153.17 126.551 154.039 126.077 155.026C125.602 156.014 125.325 157.021 125.246 158.028C131.378 158.028 137.531 158.009 143.664 157.93L143.683 157.969ZM128.629 139.127C132.447 136.934 136.285 134.742 140.103 132.53C140.854 133.892 141.606 135.255 142.358 136.618C138.5 138.731 134.643 140.845 130.785 142.919C130.073 141.655 129.341 140.391 128.629 139.127Z" fill="#F6F6F6"/>
<path d="M154.386 173.73V145.506C156.048 145.486 157.709 145.447 159.371 145.407C159.371 146.257 159.371 147.106 159.371 147.955C159.411 147.955 159.431 147.955 159.47 147.955C160.024 147.165 160.637 146.533 161.35 146.079C162.042 145.625 162.754 145.269 163.427 145.032C164.119 144.795 164.752 144.637 165.326 144.578C165.9 144.519 166.374 144.479 166.711 144.479V149.95C166.295 149.95 165.722 150.049 164.97 150.246C164.218 150.424 163.506 150.701 162.853 151.056C162.002 151.55 161.251 152.36 160.637 153.466C160.024 154.592 159.708 156.152 159.708 158.206V173.651C157.927 173.671 156.147 173.691 154.366 173.711L154.386 173.73Z" fill="#F6F6F6"/>
<path d="M199.076 158.641C199.076 160.398 198.719 162.156 198.027 163.954C197.315 165.751 196.326 167.39 195.02 168.852C193.714 170.313 192.112 171.518 190.193 172.486C188.274 173.454 186.118 173.948 183.704 173.987C181.31 174.027 179.154 173.612 177.255 172.743C175.356 171.874 173.734 170.728 172.428 169.326C171.102 167.924 170.094 166.324 169.401 164.546C168.689 162.769 168.353 160.971 168.353 159.174C168.353 157.238 168.729 155.362 169.5 153.584C170.272 151.807 171.34 150.207 172.705 148.844C174.07 147.461 175.692 146.355 177.572 145.486C179.431 144.617 181.489 144.163 183.724 144.104C185.88 144.045 187.898 144.4 189.758 145.131C191.617 145.881 193.259 146.908 194.644 148.232C196.029 149.555 197.117 151.115 197.908 152.913C198.7 154.71 199.095 156.626 199.095 158.641H199.076ZM193.734 158.759C193.734 157.495 193.497 156.27 193.022 155.066C192.547 153.881 191.875 152.814 190.984 151.905C190.114 150.977 189.065 150.246 187.819 149.713C186.593 149.18 185.208 148.923 183.704 148.963C182.201 149.002 180.816 149.318 179.589 149.911C178.363 150.503 177.295 151.273 176.424 152.241C175.554 153.209 174.861 154.295 174.386 155.5C173.912 156.725 173.674 157.969 173.674 159.233C173.674 160.537 173.912 161.761 174.386 162.946C174.861 164.131 175.554 165.198 176.444 166.126C177.334 167.074 178.383 167.805 179.609 168.338C180.816 168.872 182.181 169.128 183.704 169.109C185.148 169.089 186.474 168.793 187.681 168.22C188.887 167.647 189.956 166.877 190.866 165.929C191.776 164.961 192.468 163.875 192.982 162.63C193.477 161.386 193.734 160.102 193.734 158.759Z" fill="#F6F6F6"/>
<path d="M209.877 140.944C208.097 140.983 206.316 141.023 204.536 141.062C204.536 138.969 204.536 136.875 204.536 134.781C206.316 134.742 208.097 134.683 209.877 134.643C209.877 136.737 209.877 138.83 209.877 140.944ZM209.877 172.822C208.097 172.842 206.316 172.881 204.536 172.921C204.536 163.401 204.536 153.9 204.536 144.38C206.316 144.341 208.097 144.301 209.877 144.262C209.877 153.782 209.877 163.302 209.877 172.842V172.822Z" fill="#F6F6F6"/>
<path d="M227.978 151.491C227.8 150.325 227.405 149.456 226.772 148.903C226.139 148.35 225.327 148.074 224.338 148.094C223.349 148.094 222.538 148.41 221.925 148.982C221.312 149.555 220.995 150.306 220.995 151.194C220.995 151.787 221.114 152.261 221.351 152.656C221.589 153.051 221.925 153.387 222.32 153.644C222.736 153.92 223.211 154.137 223.745 154.315C224.279 154.493 224.833 154.671 225.407 154.829C225.961 154.987 226.712 155.243 227.662 155.579C228.631 155.915 229.581 156.428 230.511 157.12C231.46 157.811 232.271 158.72 232.944 159.845C233.636 160.951 233.973 162.374 233.973 164.052C233.973 165.336 233.755 166.521 233.32 167.627C232.885 168.733 232.271 169.701 231.44 170.55C230.61 171.38 229.62 172.052 228.433 172.545C227.246 173.039 225.901 173.296 224.398 173.316C223.507 173.316 222.479 173.177 221.312 172.881C220.144 172.585 219.056 172.052 218.028 171.301C216.999 170.55 216.128 169.504 215.396 168.22C214.684 166.916 214.308 165.297 214.308 163.341C216.089 163.302 217.869 163.282 219.65 163.262C219.749 164.882 220.204 166.146 221.015 167.074C221.826 168.003 222.973 168.437 224.477 168.417C225.684 168.417 226.673 168.042 227.444 167.311C228.216 166.6 228.592 165.632 228.592 164.428C228.592 163.815 228.453 163.262 228.216 162.828C227.959 162.374 227.603 161.998 227.167 161.682C226.712 161.366 226.198 161.07 225.565 160.833C224.952 160.576 224.299 160.339 223.606 160.102C222.815 159.845 221.964 159.529 221.035 159.194C220.105 158.838 219.234 158.364 218.443 157.732C217.632 157.1 216.959 156.31 216.405 155.342C215.851 154.374 215.575 153.13 215.575 151.609C215.575 150.543 215.792 149.516 216.208 148.528C216.643 147.54 217.236 146.652 218.008 145.862C218.779 145.072 219.729 144.44 220.837 143.946C221.945 143.452 223.171 143.195 224.516 143.175C225.347 143.175 226.257 143.274 227.246 143.531C228.236 143.788 229.165 144.242 230.056 144.874C230.926 145.526 231.678 146.375 232.291 147.422C232.904 148.489 233.241 149.812 233.26 151.392C231.48 151.412 229.7 151.431 227.919 151.471L227.978 151.491Z" fill="#F6F6F6"/>
<path d="M242.479 160.418C242.816 161.801 243.33 162.986 244.003 163.973C244.675 164.961 245.447 165.771 246.317 166.403C247.188 167.035 248.117 167.509 249.067 167.805C250.036 168.101 250.946 168.24 251.837 168.24C253.815 168.24 255.516 167.746 256.901 166.778C258.286 165.79 259.315 164.684 259.967 163.44C261.748 163.44 263.528 163.46 265.309 163.48C264.616 165.356 263.726 166.916 262.638 168.161C261.55 169.405 260.363 170.392 259.117 171.123C257.87 171.854 256.585 172.387 255.259 172.723C253.934 173.039 252.727 173.217 251.639 173.197C249.621 173.197 247.722 172.782 245.961 171.973C244.2 171.163 242.657 170.076 241.352 168.694C240.046 167.311 239.017 165.711 238.266 163.894C237.514 162.058 237.138 160.142 237.138 158.088C237.138 155.935 237.534 153.94 238.305 152.083C239.077 150.227 240.125 148.607 241.451 147.244C242.776 145.881 244.319 144.815 246.08 144.025C247.84 143.254 249.74 142.859 251.757 142.84C253.676 142.84 255.516 143.195 257.257 143.946C258.998 144.696 260.541 145.723 261.886 147.047C263.232 148.37 264.28 149.95 265.071 151.767C265.863 153.584 266.258 155.559 266.258 157.673C266.258 158.167 266.258 158.7 266.199 159.292C266.159 159.885 266.12 160.26 266.1 160.438C258.226 160.359 250.353 160.359 242.499 160.418H242.479ZM260.897 156.231C260.818 155.184 260.561 154.157 260.066 153.13C259.592 152.103 258.939 151.194 258.108 150.404C257.277 149.614 256.327 148.982 255.219 148.508C254.112 148.015 252.944 147.777 251.678 147.797C250.373 147.797 249.186 148.054 248.098 148.548C247.01 149.042 246.06 149.674 245.249 150.464C244.418 151.254 243.765 152.162 243.29 153.189C242.816 154.216 242.539 155.243 242.46 156.29C248.592 156.251 254.745 156.231 260.877 156.251L260.897 156.231Z" fill="#F6F6F6"/>
<path d="M5.49965 0H0V338H5.49965V0Z" fill="#EAEAEA"/>
</g>
<defs>
<clipPath id="clip0_13_250">
<rect width="370" height="338" fill="white"/>
</clipPath>
</defs>
</svg>
