<svg width="475" height="498" viewBox="0 0 475 498" fill="none" xmlns="http://www.w3.org/2000/svg">
<g clip-path="url(#clip0_71_304)">
<path d="M474.033 276C321.7 262.692 169.366 281.338 17.0331 268.005C17.0331 181.883 17.0331 95.7614 17.0331 9.63944C169.366 17.6343 321.7 -6.325 474.033 1.64457V275.975V276Z" fill="#00A19A"/>
<path d="M83.207 98.6455C80.8409 98.5443 78.5 98.4178 76.134 98.2913V51.0558C80.7906 51.2835 85.4723 51.4606 90.1289 51.6124C92.9984 51.7136 95.5154 52.1184 97.6801 52.8774C99.8448 53.6364 101.607 54.6484 103.016 55.9388C104.401 57.2291 105.458 58.7724 106.163 60.5434C106.867 62.3397 107.22 64.2625 107.22 66.3624C107.22 68.513 106.867 70.4358 106.163 72.1815C105.458 73.9272 104.426 75.4199 103.016 76.6343C101.632 77.874 99.8448 78.8101 97.6801 79.4426C95.5154 80.0752 92.9984 80.3535 90.1289 80.2523C87.8132 80.1764 85.4975 80.0752 83.1818 79.974V98.6455H83.207ZM83.207 73.6489C85.5227 73.7501 87.8384 73.8513 90.1541 73.9272C92.1677 74.0031 93.8038 73.8007 95.0875 73.32C96.3713 72.8393 97.4033 72.2321 98.1584 71.4984C98.9135 70.7394 99.4421 69.9045 99.719 68.9684C99.9958 68.0323 100.147 67.1214 100.147 66.2106C100.147 65.3251 99.9958 64.389 99.719 63.4529C99.4421 62.5168 98.9135 61.6313 98.1584 60.847C97.4033 60.0627 96.3713 59.3796 95.0875 58.8483C93.8038 58.2917 92.1426 57.9881 90.1541 57.9375C87.8384 57.8616 85.5227 57.7857 83.207 57.6845V73.6489Z" fill="#F6F6F6"/>
<path d="M119.654 99.7081C117.389 99.6828 115.123 99.6575 112.858 99.6069V52.0678C115.123 52.0678 117.389 52.0931 119.654 52.1184V99.7081Z" fill="#F6F6F6"/>
<path d="M158.216 99.6322V94.0662C158.216 94.0662 158.14 94.0662 158.09 94.0662C156.781 96.2926 155.019 97.9371 152.829 99.025C150.614 100.113 148.273 100.67 145.807 100.67C142.761 100.67 140.017 100.164 137.626 99.1262C135.235 98.0636 133.196 96.6721 131.585 94.9264C129.949 93.1807 128.716 91.182 127.86 88.9555C127.004 86.7291 126.576 84.4268 126.576 82.0486C126.576 79.8475 126.979 77.6463 127.759 75.4199C128.539 73.1935 129.723 71.1695 131.333 69.3226C132.919 67.501 134.933 65.9829 137.324 64.8191C139.715 63.63 142.56 63.0228 145.832 62.9975C148.349 62.9722 150.715 63.4276 152.905 64.4143C155.095 65.401 156.831 66.8432 158.14 68.8166C158.191 68.8166 158.216 68.8166 158.266 68.8166V63.7565C160.532 63.7059 162.797 63.6553 165.062 63.6047V99.531C162.797 99.5816 160.532 99.6069 158.266 99.6322H158.216ZM158.342 81.745C158.342 79.8475 158.014 78.1017 157.36 76.5584C156.706 74.9898 155.799 73.6742 154.667 72.561C153.534 71.4478 152.2 70.6129 150.665 70.0057C149.129 69.3985 147.493 69.1202 145.756 69.1455C143.667 69.1708 141.83 69.6009 140.294 70.4105C138.734 71.2201 137.45 72.2574 136.393 73.4971C135.336 74.7621 134.58 76.1283 134.077 77.6463C133.574 79.1644 133.322 80.6065 133.322 82.0233C133.322 83.6678 133.624 85.2364 134.228 86.7291C134.832 88.2218 135.688 89.5627 136.77 90.7266C137.853 91.8904 139.162 92.8265 140.697 93.5096C142.232 94.218 143.868 94.5469 145.681 94.5469C147.468 94.5469 149.129 94.1927 150.665 93.4843C152.2 92.8012 153.534 91.8651 154.667 90.7266C155.799 89.5627 156.706 88.2218 157.36 86.6785C158.014 85.1352 158.342 83.4907 158.342 81.7703V81.745Z" fill="#F6F6F6"/>
<path d="M181.7 99.1262C179.435 99.1768 177.169 99.2527 174.904 99.3033V69.4744C173.268 69.525 171.632 69.5756 169.996 69.6009V63.4276C171.632 63.377 173.268 63.3264 174.904 63.2758V51.1823C177.169 51.1064 179.435 51.0305 181.7 50.9546V63.0481C183.689 62.9722 185.677 62.9216 187.666 62.8457V69.019C185.677 69.0949 183.689 69.1455 181.7 69.2214V99.0756V99.1262Z" fill="#F6F6F6"/>
<path d="M197.205 83.5413C197.633 85.2617 198.288 86.7291 199.143 87.9435C199.999 89.1579 200.981 90.1446 202.088 90.9037C203.196 91.6627 204.379 92.2193 205.587 92.5482C206.821 92.8771 207.978 93.0289 209.111 92.9783C211.628 92.8771 213.793 92.194 215.555 90.8783C217.317 89.5627 218.626 88.1206 219.456 86.5014C221.722 86.4002 223.987 86.3243 226.252 86.2231C225.371 88.6266 224.239 90.6254 222.854 92.2699C221.445 93.8891 219.96 95.2047 218.374 96.2167C216.788 97.2287 215.152 97.9624 213.466 98.4178C211.779 98.8985 210.244 99.1515 208.859 99.2021C206.292 99.3033 203.876 98.8732 201.635 97.9118C199.395 96.9757 197.432 95.6601 195.771 93.965C194.109 92.2699 192.8 90.2965 191.844 88.0194C190.887 85.7424 190.409 83.3389 190.409 80.7583C190.409 78.0764 190.913 75.5464 191.894 73.1935C192.876 70.8406 194.21 68.766 195.896 67.0203C197.583 65.2492 199.546 63.8577 201.786 62.8204C204.027 61.7831 206.443 61.2012 209.01 61.0747C211.452 60.9735 213.793 61.3277 216.008 62.1879C218.223 63.0228 220.186 64.2372 221.898 65.8311C223.609 67.4251 224.943 69.3226 225.95 71.549C226.957 73.7754 227.461 76.2295 227.461 78.8861C227.461 79.4933 227.461 80.1764 227.385 80.9101C227.335 81.6438 227.309 82.1498 227.259 82.3522C217.241 82.7823 207.223 83.1618 197.23 83.516L197.205 83.5413ZM220.639 77.4186C220.539 76.103 220.211 74.838 219.582 73.573C218.978 72.308 218.147 71.2201 217.09 70.284C216.033 69.3479 214.825 68.6142 213.415 68.0576C212.006 67.501 210.521 67.2733 208.91 67.3239C207.248 67.3998 205.738 67.754 204.354 68.4118C202.969 69.0696 201.761 69.9298 200.729 70.9418C199.672 71.9538 198.841 73.1176 198.237 74.4332C197.633 75.7488 197.281 77.0391 197.18 78.3547C204.983 78.0764 212.811 77.7728 220.614 77.4439L220.639 77.4186Z" fill="#F6F6F6"/>
<path d="M234.433 97.3046V67.1721C233.376 67.2227 232.293 67.2733 231.236 67.3239C231.236 65.2492 231.236 63.1746 231.236 61.1C232.293 61.0494 233.376 60.9988 234.433 60.9482V59.1772C234.433 57.2038 234.81 55.534 235.54 54.1425C236.27 52.7509 237.353 51.5365 238.737 50.4992C239.467 50.0185 240.172 49.639 240.801 49.3354C241.43 49.0318 242.085 48.8041 242.764 48.6523C243.444 48.4752 244.149 48.374 244.929 48.2728C245.684 48.1969 246.565 48.121 247.572 48.0704C247.572 50.145 247.572 52.2449 247.572 54.3196C245.307 54.4208 243.67 54.9015 242.689 55.7111C241.707 56.5207 241.229 57.558 241.229 58.8483V60.6193C243.343 60.5181 245.458 60.4169 247.572 60.3157C247.572 62.3903 247.572 64.4902 247.572 66.5649C245.458 66.6661 243.343 66.7673 241.229 66.8432V97.001C238.964 97.1022 236.698 97.1781 234.433 97.2793V97.3046Z" fill="#F6F6F6"/>
<path d="M288.298 76.7355C288.298 78.9873 287.845 81.2896 286.964 83.6172C286.058 85.9448 284.799 88.07 283.138 89.9929C281.477 91.9157 279.438 93.5096 276.997 94.7746C274.555 96.0649 271.811 96.748 268.741 96.8745C265.695 97.001 262.951 96.5203 260.535 95.4324C258.118 94.3698 256.054 92.953 254.393 91.1567C252.707 89.3856 251.423 87.3616 250.542 85.0846C249.636 82.8076 249.208 80.5306 249.208 78.203C249.208 75.6982 249.686 73.2947 250.668 70.9671C251.65 68.6395 253.009 66.5649 254.746 64.7685C256.482 62.9469 258.546 61.4542 260.938 60.2904C263.304 59.1266 265.921 58.4688 268.766 58.3423C271.509 58.2158 274.077 58.6206 276.443 59.5314C278.809 60.4422 280.898 61.7325 282.66 63.4023C284.422 65.0721 285.806 67.0709 286.813 69.3732C287.82 71.6755 288.323 74.1296 288.323 76.7355H288.298ZM281.502 77.0138C281.502 75.3693 281.2 73.8007 280.596 72.2827C279.992 70.7647 279.136 69.4238 278.003 68.26C276.896 67.0962 275.562 66.1854 273.976 65.5275C272.415 64.8697 270.653 64.5914 268.741 64.6673C266.828 64.7432 265.066 65.1986 263.505 65.983C261.944 66.7673 260.585 67.8046 259.478 69.0696C258.37 70.3346 257.489 71.7514 256.885 73.3453C256.281 74.9392 255.979 76.5331 255.979 78.1524C255.979 79.8222 256.281 81.4161 256.885 82.9341C257.489 84.4521 258.37 85.793 259.503 86.9821C260.636 88.1712 261.97 89.082 263.53 89.7652C265.066 90.423 266.802 90.7266 268.741 90.6507C270.578 90.5748 272.264 90.17 273.8 89.3857C275.335 88.6266 276.694 87.6146 277.852 86.3496C279.01 85.0846 279.891 83.6678 280.546 82.0486C281.175 80.4294 281.502 78.7596 281.502 77.0391V77.0138Z" fill="#F6F6F6"/>
<path d="M295.245 95.0023V58.2411C297.36 58.1652 299.474 58.0893 301.588 58.0134V61.3277C301.588 61.3277 301.664 61.3277 301.714 61.3277C302.419 60.2904 303.199 59.4555 304.105 58.8483C305.012 58.2411 305.892 57.7857 306.748 57.4568C307.629 57.1279 308.435 56.9255 309.165 56.8496C309.895 56.7484 310.499 56.6978 310.927 56.6978V63.8071C310.398 63.8071 309.668 63.9589 308.712 64.2119C307.755 64.4649 306.849 64.8191 306.018 65.2998C304.936 65.9576 303.98 67.0203 303.199 68.4877C302.419 69.9551 302.016 72.0044 302.016 74.6609V94.7999C299.751 94.8758 297.485 94.9264 295.22 95.0023H295.245Z" fill="#F6F6F6"/>
<path d="M366.051 93.965C366.051 87.058 366.051 80.1764 366.051 73.2694C366.051 72.4598 365.975 71.4225 365.849 70.1828C365.723 68.9178 365.371 67.7034 364.842 66.5142C364.289 65.3251 363.458 64.2878 362.3 63.4276C361.142 62.5421 359.531 62.112 357.493 62.1373C355.303 62.1373 353.641 62.5927 352.484 63.4782C351.326 64.3637 350.47 65.401 349.941 66.5901C349.388 67.7793 349.086 68.9937 348.985 70.2587C348.909 71.4984 348.859 72.5104 348.859 73.2694V93.965C346.594 93.965 344.328 93.9903 342.063 94.0156C342.063 87.1592 342.063 80.2776 342.063 73.4212C342.113 71.8526 342.063 70.5117 341.912 69.3732C341.761 68.2347 341.308 67.0456 340.578 65.8058C339.697 64.4902 338.69 63.5794 337.507 63.124C336.324 62.6433 335.116 62.4409 333.832 62.4662C331.617 62.5168 329.88 62.9975 328.672 63.9083C327.439 64.8191 326.558 65.8817 325.979 67.0962C325.4 68.3106 325.073 69.5503 324.997 70.79C324.922 72.0297 324.871 72.9911 324.871 73.6489V94.2686C322.606 94.3192 320.341 94.3698 318.075 94.4204V57.5074C320.164 57.4568 322.254 57.3809 324.368 57.3303V61.3277C324.368 61.3277 324.443 61.3277 324.494 61.3277C324.796 60.9229 325.199 60.4422 325.702 59.8603C326.205 59.3037 326.86 58.7218 327.665 58.1905C328.471 57.6339 329.452 57.1532 330.61 56.7484C331.768 56.3436 333.203 56.1159 334.889 56.0906C335.972 56.0906 337.079 56.1918 338.237 56.4195C339.37 56.6725 340.452 57.0267 341.484 57.5327C342.516 58.0387 343.422 58.6712 344.228 59.4302C345.033 60.1892 345.687 61.1 346.166 62.112C346.468 61.6566 346.896 61.0747 347.399 60.3663C347.928 59.6579 348.632 58.9495 349.564 58.2664C350.47 57.5833 351.628 57.0014 353.012 56.5207C354.397 56.04 356.108 55.787 358.147 55.787C361.193 55.787 363.785 56.3689 365.925 57.558C368.064 58.7471 369.726 60.3916 370.909 62.5168C372.268 65.0468 372.947 68.0576 372.947 71.5996V94.0662C370.682 94.0409 368.417 94.0156 366.151 93.9903L366.051 93.965Z" fill="#F6F6F6"/>
<path d="M386.514 78.6584C386.942 80.4547 387.597 82.0233 388.453 83.3136C389.308 84.6039 390.29 85.6918 391.397 86.5773C392.505 87.4375 393.688 88.0953 394.896 88.5001C396.13 88.9302 397.287 89.1579 398.42 89.2085C400.962 89.3097 403.102 88.7531 404.864 87.5387C406.626 86.3243 407.935 84.9328 408.765 83.3389C411.031 83.4401 413.296 83.5666 415.561 83.6678C414.68 86.0713 413.548 88.0194 412.163 89.588C410.754 91.1314 409.269 92.3711 407.683 93.2566C406.097 94.1421 404.461 94.7746 402.775 95.1288C401.088 95.483 399.553 95.6348 398.168 95.5842C395.601 95.483 393.185 94.8758 390.944 93.7626C388.704 92.6494 386.741 91.1567 385.08 89.335C383.418 87.4881 382.11 85.3882 381.153 82.9847C380.197 80.5812 379.718 78.0764 379.718 75.4199C379.718 72.6369 380.197 70.0563 381.178 67.6781C382.16 65.2998 383.494 63.2252 385.18 61.5301C386.867 59.8097 388.83 58.4688 391.07 57.5327C393.31 56.5966 395.727 56.1665 398.294 56.2424C400.736 56.3183 403.077 56.8749 405.292 57.9375C407.507 59.0001 409.47 60.4169 411.182 62.2132C412.893 64.0095 414.227 66.1094 415.234 68.513C416.241 70.9165 416.744 73.4971 416.744 76.2548C416.744 76.8873 416.744 77.5957 416.669 78.3548C416.619 79.1138 416.568 79.6198 416.543 79.8475C406.525 79.3162 396.507 78.9367 386.514 78.709V78.6584ZM409.948 74.079C409.848 72.7128 409.52 71.3719 408.891 70.0057C408.287 68.6395 407.456 67.4504 406.399 66.3878C405.342 65.3251 404.134 64.4649 402.724 63.7818C401.315 63.0987 399.83 62.7445 398.219 62.6939C396.558 62.6433 395.047 62.9216 393.663 63.5035C392.278 64.0854 391.07 64.895 390.038 65.8817C388.981 66.8685 388.15 68.007 387.546 69.3226C386.942 70.6382 386.59 71.9538 386.489 73.32C394.292 73.4971 402.095 73.7501 409.923 74.1043L409.948 74.079Z" fill="#F6F6F6"/>
<path d="M113.059 124.882C112.707 124.477 112.153 123.92 111.423 123.136C110.693 122.377 109.762 121.593 108.629 120.809C107.522 120.024 106.188 119.341 104.678 118.784C103.142 118.203 101.405 117.874 99.4421 117.823C96.8998 117.747 94.559 118.127 92.3691 118.987C90.1793 119.847 88.2915 121.062 86.6805 122.605C85.0696 124.148 83.7859 125.995 82.8546 128.171C81.9233 130.347 81.445 132.649 81.445 135.128C81.445 137.684 81.9484 140.087 82.9301 142.364C83.9117 144.641 85.2206 146.64 86.8567 148.386C88.4928 150.131 90.3806 151.548 92.5453 152.611C94.71 153.673 96.9754 154.255 99.3162 154.357C101.884 154.458 104.325 153.977 106.616 152.94C108.906 151.877 110.87 150.41 112.531 148.538C115.426 148.613 118.345 148.689 121.24 148.74C119.881 151.017 118.345 152.965 116.583 154.559C114.847 156.153 112.984 157.393 111.046 158.329C109.108 159.265 107.119 159.897 105.08 160.277C103.042 160.656 101.103 160.808 99.2156 160.732C95.7672 160.58 92.5453 159.771 89.5248 158.303C86.5043 156.836 83.8866 154.888 81.6464 152.51C79.4062 150.131 77.6191 147.399 76.3102 144.338C75.0013 141.276 74.3469 138.063 74.3469 134.698C74.3469 131.257 75.0013 128.095 76.3353 125.211C77.6694 122.327 79.4565 119.872 81.7471 117.798C84.0124 115.723 86.6554 114.129 89.6758 113.041C92.6963 111.928 95.893 111.447 99.2911 111.549C100.197 111.574 101.254 111.675 102.387 111.827C103.545 111.979 104.778 112.257 106.087 112.637C107.396 113.016 108.73 113.522 110.089 114.155C111.449 114.787 112.783 115.597 114.091 116.558C116.281 118.152 117.917 119.695 119 121.213C120.082 122.731 120.938 124.022 121.542 125.11C118.698 125.059 115.879 125.008 113.034 124.958L113.059 124.882Z" fill="#F6F6F6"/>
<path d="M134.253 120.859C131.988 120.859 129.723 120.834 127.457 120.808V112.94C129.723 112.94 131.988 112.965 134.253 112.991V120.859ZM134.253 160.707C131.988 160.682 129.723 160.656 127.457 160.606V124.932C129.723 124.932 131.988 124.983 134.253 124.983V160.707Z" fill="#F6F6F6"/>
<path d="M150.614 160.808C148.349 160.808 146.083 160.808 143.818 160.808V131.156C142.182 131.156 140.546 131.156 138.91 131.156C138.91 129.107 138.91 127.058 138.91 125.034C140.546 125.034 142.182 125.034 143.818 125.034V113.016C146.083 113.016 148.349 113.016 150.614 112.965V125.008C152.603 125.008 154.591 124.983 156.58 124.958V131.106C154.591 131.106 152.603 131.131 150.614 131.156V160.833V160.808Z" fill="#F6F6F6"/>
<path d="M198.388 142.035C198.388 144.262 197.935 146.514 197.054 148.791C196.148 151.068 194.89 153.142 193.228 155.014C191.567 156.887 189.528 158.405 187.087 159.619C184.645 160.833 181.901 161.466 178.831 161.517C175.785 161.567 173.041 161.011 170.625 159.897C168.209 158.784 166.145 157.317 164.483 155.52C162.797 153.724 161.513 151.675 160.632 149.423C159.726 147.171 159.298 144.894 159.298 142.592C159.298 140.138 159.776 137.785 160.783 135.508C161.765 133.256 163.124 131.257 164.861 129.537C166.598 127.817 168.662 126.4 171.053 125.312C173.419 124.224 176.037 123.667 178.881 123.617C181.625 123.566 184.192 123.996 186.558 124.932C188.924 125.869 191.013 127.184 192.775 128.854C194.537 130.524 195.922 132.497 196.928 134.774C197.935 137.051 198.439 139.48 198.439 142.035H198.388ZM191.592 142.212C191.592 140.593 191.29 139.05 190.686 137.532C190.082 136.039 189.201 134.698 188.093 133.509C186.986 132.345 185.652 131.409 184.066 130.726C182.506 130.043 180.744 129.714 178.831 129.765C176.918 129.815 175.156 130.195 173.595 130.929C172.034 131.662 170.675 132.649 169.568 133.838C168.46 135.053 167.604 136.419 166.975 137.962C166.371 139.505 166.069 141.074 166.069 142.668C166.069 144.312 166.371 145.881 166.975 147.399C167.579 148.917 168.46 150.258 169.593 151.447C170.726 152.636 172.06 153.598 173.62 154.281C175.181 154.964 176.892 155.318 178.831 155.267C180.668 155.242 182.354 154.863 183.89 154.154C185.425 153.446 186.785 152.459 187.942 151.245C189.1 150.03 189.981 148.639 190.636 147.045C191.265 145.476 191.592 143.832 191.592 142.137V142.212Z" fill="#F6F6F6"/>
<path d="M216.511 171.915C214.145 171.966 211.804 172.016 209.438 172.092C211.2 167.791 212.962 163.465 214.749 159.138C209.917 147.424 205.109 135.736 200.276 124.072C202.718 123.996 205.159 123.92 207.601 123.845C211.15 133.104 214.699 142.364 218.273 151.649C221.923 142.162 225.548 132.649 229.197 123.136C231.639 123.06 234.08 122.959 236.522 122.883C229.852 139.303 223.181 155.647 216.486 171.94L216.511 171.915Z" fill="#F6F6F6"/>
<path d="M245.231 143.73C245.659 145.476 246.313 146.944 247.169 148.183C248.025 149.398 249.007 150.41 250.114 151.194C251.222 151.978 252.405 152.535 253.613 152.864C254.846 153.193 256.004 153.345 257.137 153.319C259.679 153.243 261.819 152.56 263.581 151.245C265.342 149.929 266.651 148.487 267.482 146.868C269.747 146.792 272.013 146.741 274.278 146.665C273.397 149.069 272.264 151.093 270.88 152.712C269.47 154.331 267.985 155.647 266.4 156.634C264.814 157.62 263.178 158.354 261.491 158.809C259.805 159.265 258.269 159.518 256.885 159.568C254.318 159.644 251.901 159.189 249.661 158.228C247.421 157.266 245.458 155.925 243.796 154.23C242.135 152.535 240.826 150.536 239.87 148.234C238.913 145.932 238.435 143.503 238.435 140.922C238.435 138.215 238.938 135.66 239.92 133.282C240.902 130.903 242.236 128.829 243.922 127.058C245.609 125.287 247.572 123.895 249.812 122.833C252.052 121.795 254.469 121.213 257.036 121.137C259.478 121.062 261.819 121.441 264.034 122.301C266.249 123.161 268.212 124.401 269.924 126.02C271.635 127.64 272.969 129.588 273.976 131.839C274.983 134.091 275.486 136.571 275.486 139.278C275.486 139.885 275.486 140.568 275.411 141.327C275.36 142.086 275.31 142.567 275.285 142.794C265.267 143.073 255.249 143.402 245.256 143.73H245.231ZM268.665 137.709C268.564 136.393 268.237 135.103 267.608 133.813C267.004 132.522 266.173 131.409 265.116 130.448C264.059 129.486 262.851 128.727 261.441 128.171C260.057 127.614 258.546 127.336 256.935 127.412C255.274 127.462 253.764 127.817 252.38 128.5C250.995 129.158 249.787 129.992 248.755 131.03C247.698 132.042 246.867 133.231 246.263 134.547C245.659 135.862 245.307 137.178 245.206 138.493C253.009 138.24 260.837 137.987 268.64 137.734L268.665 137.709Z" fill="#F6F6F6"/>
<path d="M307.604 157.443V137.431C307.604 136.722 307.554 135.736 307.478 134.445C307.378 133.155 307.076 131.89 306.497 130.65C305.918 129.411 305.037 128.323 303.803 127.412C302.57 126.501 300.833 126.096 298.568 126.147C295.698 126.223 293.383 127.26 291.621 129.259C289.884 131.257 289.003 134.091 289.003 137.81V157.823C286.738 157.873 284.472 157.924 282.207 157.975C282.207 145.755 282.207 133.535 282.207 121.289C284.321 121.213 286.436 121.163 288.55 121.087V125.008C288.55 125.008 288.625 125.008 288.676 125.008C289.582 123.743 290.589 122.757 291.696 122.074C292.779 121.39 293.836 120.859 294.843 120.53C295.849 120.201 296.756 119.999 297.561 119.923C298.367 119.847 298.945 119.822 299.298 119.822C302.142 119.746 304.659 120.252 306.849 121.365C309.039 122.478 310.801 124.047 312.11 126.096C312.84 127.285 313.419 128.626 313.771 130.119C314.149 131.612 314.35 133.408 314.4 135.508V157.342C312.135 157.367 309.87 157.418 307.604 157.443Z" fill="#F6F6F6"/>
<path d="M348.431 157.19V137.026C348.431 136.318 348.381 135.306 348.305 134.015C348.205 132.725 347.877 131.435 347.324 130.17C346.745 128.905 345.864 127.791 344.63 126.855C343.397 125.919 341.66 125.464 339.395 125.464C336.525 125.464 334.21 126.476 332.448 128.449C330.711 130.423 329.83 133.282 329.83 137.026V157.19C327.565 157.19 325.299 157.216 323.034 157.241V120.303C325.148 120.277 327.262 120.252 329.377 120.201V124.148C329.377 124.148 329.452 124.148 329.503 124.148C330.409 122.883 331.416 121.922 332.523 121.239C333.606 120.556 334.663 120.05 335.67 119.746C336.676 119.417 337.582 119.24 338.388 119.189C339.193 119.139 339.772 119.113 340.125 119.113C342.969 119.113 345.486 119.67 347.676 120.834C349.866 121.998 351.628 123.617 352.937 125.742C353.692 126.956 354.246 128.323 354.598 129.841C354.975 131.359 355.177 133.18 355.227 135.28V157.266C352.962 157.266 350.696 157.216 348.431 157.216V157.19Z" fill="#F6F6F6"/>
<path d="M368.92 141.858C369.348 143.655 370.002 145.198 370.858 146.488C371.714 147.779 372.696 148.866 373.803 149.727C374.911 150.587 376.094 151.219 377.302 151.624C378.535 152.029 379.693 152.257 380.826 152.307C383.368 152.383 385.508 151.827 387.27 150.612C389.032 149.398 390.34 148.006 391.171 146.412C393.436 146.514 395.702 146.589 397.967 146.691C397.086 149.094 395.953 151.068 394.569 152.611C393.185 154.179 391.674 155.394 390.089 156.305C388.503 157.216 386.867 157.848 385.18 158.202C383.494 158.556 381.959 158.734 380.574 158.683C378.007 158.607 375.59 158 373.35 156.887C371.11 155.773 369.147 154.306 367.485 152.484C365.824 150.663 364.515 148.563 363.559 146.159C362.602 143.781 362.124 141.251 362.124 138.62C362.124 135.837 362.602 133.256 363.584 130.878C364.566 128.5 365.9 126.45 367.586 124.73C369.273 123.01 371.236 121.669 373.476 120.733C375.716 119.796 378.133 119.341 380.7 119.417C383.142 119.468 385.482 120.024 387.697 121.062C389.912 122.099 391.876 123.516 393.587 125.287C395.299 127.058 396.633 129.132 397.64 131.536C398.647 133.914 399.15 136.495 399.15 139.227C399.15 139.86 399.15 140.543 399.075 141.327C399.024 142.086 398.999 142.592 398.949 142.794C388.931 142.339 378.913 142.01 368.92 141.833V141.858ZM392.354 137.152C392.279 135.812 391.926 134.445 391.297 133.104C390.693 131.763 389.862 130.549 388.805 129.512C387.748 128.474 386.54 127.614 385.13 126.931C383.721 126.248 382.235 125.894 380.624 125.869C378.963 125.818 377.453 126.096 376.069 126.703C374.684 127.311 373.476 128.095 372.444 129.082C371.387 130.068 370.556 131.232 369.952 132.523C369.348 133.838 368.996 135.154 368.895 136.495C376.698 136.621 384.501 136.849 392.329 137.152H392.354Z" fill="#F6F6F6"/>
<path d="M103.822 220.567C103.822 213.686 103.822 206.804 103.822 199.922C97.1768 199.619 90.5065 199.264 83.8614 198.834V219.403C81.4954 219.252 79.1545 219.075 76.7885 218.897C76.7885 203.161 76.7885 187.399 76.7885 171.662C79.1545 171.814 81.4954 171.966 83.8614 172.117V192.509C90.5065 192.939 97.1768 193.294 103.822 193.572C103.822 186.741 103.822 179.935 103.822 173.104C106.188 173.205 108.529 173.281 110.895 173.357V220.871C108.529 220.77 106.188 220.668 103.822 220.542V220.567Z" fill="#F6F6F6"/>
<path d="M132.617 233.521C130.251 233.47 127.91 233.394 125.544 233.319C127.306 229.169 129.068 225.02 130.855 220.846C126.022 209.056 121.215 197.266 116.382 185.501C118.824 185.577 121.265 185.653 123.707 185.704C127.256 195.014 130.83 204.325 134.379 213.66C138.029 204.502 141.653 195.292 145.303 186.058C147.745 186.058 150.186 186.083 152.628 186.108C145.958 202.022 139.287 217.835 132.592 233.546L132.617 233.521Z" fill="#F6F6F6"/>
<path d="M162.646 206.956C163.074 208.676 163.728 210.169 164.584 211.409C165.44 212.648 166.421 213.66 167.529 214.47C168.636 215.279 169.819 215.861 171.028 216.216C172.236 216.57 173.419 216.772 174.552 216.772C177.069 216.772 179.233 216.14 180.995 214.9C182.757 213.66 184.066 212.243 184.897 210.675C187.162 210.675 189.427 210.624 191.693 210.599C190.812 212.952 189.679 214.925 188.295 216.494C186.91 218.063 185.4 219.328 183.814 220.264C182.229 221.2 180.593 221.883 178.906 222.313C177.22 222.718 175.684 222.945 174.3 222.945C171.732 222.945 169.316 222.439 167.076 221.427C164.836 220.415 162.872 219.024 161.211 217.304C159.55 215.558 158.241 213.559 157.284 211.257C156.328 208.954 155.85 206.551 155.85 203.996C155.85 201.314 156.328 198.834 157.335 196.532C158.316 194.23 159.651 192.231 161.337 190.536C163.023 188.841 164.987 187.525 167.227 186.564C169.467 185.602 171.883 185.122 174.451 185.096C176.892 185.096 179.233 185.526 181.448 186.437C183.663 187.348 185.627 188.613 187.338 190.232C189.05 191.851 190.384 193.8 191.391 196.051C192.398 198.303 192.901 200.757 192.901 203.388C192.901 203.996 192.901 204.679 192.826 205.412C192.775 206.146 192.725 206.627 192.7 206.855C182.682 206.981 172.664 207.032 162.671 207.006L162.646 206.956ZM186.08 201.668C186.004 200.378 185.652 199.087 185.023 197.797C184.419 196.532 183.588 195.394 182.531 194.432C181.474 193.471 180.265 192.686 178.856 192.104C177.446 191.523 175.961 191.219 174.35 191.219C172.689 191.219 171.179 191.548 169.794 192.155C168.41 192.762 167.202 193.572 166.17 194.533C165.113 195.52 164.282 196.633 163.678 197.898C163.074 199.163 162.721 200.454 162.621 201.744C170.424 201.744 178.252 201.719 186.055 201.617L186.08 201.668ZM166.9 177.506C171.758 174.698 176.641 171.89 181.499 169.056C182.455 170.802 183.412 172.547 184.368 174.293C179.46 177 174.552 179.707 169.643 182.364C168.737 180.745 167.806 179.125 166.9 177.506Z" fill="#F6F6F6"/>
<path d="M199.697 221.832V185.678C201.812 185.653 203.926 185.602 206.04 185.552C206.04 186.64 206.04 187.728 206.04 188.815C206.091 188.815 206.116 188.815 206.166 188.815C206.871 187.803 207.651 186.994 208.557 186.412C209.438 185.83 210.344 185.375 211.2 185.071C212.081 184.767 212.887 184.565 213.617 184.489C214.347 184.413 214.951 184.363 215.379 184.363V191.371C214.85 191.371 214.12 191.497 213.164 191.75C212.207 191.978 211.301 192.332 210.47 192.788C209.388 193.42 208.431 194.457 207.651 195.874C206.871 197.316 206.468 199.315 206.468 201.946V221.731C204.203 221.756 201.937 221.782 199.672 221.807L199.697 221.832Z" fill="#F6F6F6"/>
<path d="M256.558 202.528C256.558 204.78 256.105 207.032 255.224 209.334C254.318 211.636 253.059 213.736 251.398 215.608C249.737 217.481 247.698 219.024 245.256 220.264C242.815 221.503 240.071 222.136 237 222.186C233.954 222.237 231.211 221.706 228.794 220.593C226.378 219.479 224.314 218.012 222.653 216.216C220.966 214.419 219.683 212.37 218.802 210.093C217.896 207.816 217.468 205.514 217.468 203.211C217.468 200.732 217.946 198.328 218.928 196.051C219.909 193.774 221.268 191.725 223.005 189.979C224.742 188.208 226.806 186.791 229.197 185.678C231.563 184.565 234.181 183.983 237.025 183.907C239.769 183.831 242.336 184.287 244.702 185.223C247.068 186.184 249.158 187.5 250.92 189.195C252.682 190.89 254.066 192.889 255.073 195.191C256.08 197.493 256.583 199.948 256.583 202.528H256.558ZM249.762 202.655C249.762 201.035 249.46 199.467 248.856 197.924C248.251 196.406 247.396 195.039 246.263 193.875C245.155 192.686 243.821 191.75 242.236 191.067C240.675 190.384 238.913 190.055 237 190.106C235.087 190.156 233.325 190.561 231.765 191.32C230.204 192.079 228.845 193.066 227.737 194.306C226.63 195.545 225.749 196.937 225.145 198.48C224.541 200.049 224.239 201.643 224.239 203.262C224.239 204.932 224.541 206.5 225.145 208.018C225.749 209.536 226.63 210.903 227.762 212.092C228.895 213.306 230.229 214.242 231.79 214.925C233.325 215.608 235.062 215.937 237 215.912C238.838 215.887 240.524 215.507 242.059 214.773C243.595 214.04 244.954 213.053 246.112 211.839C247.27 210.599 248.151 209.207 248.805 207.614C249.435 206.02 249.762 204.375 249.762 202.655Z" fill="#F6F6F6"/>
<path d="M270.301 179.834C268.036 179.884 265.77 179.935 263.505 179.986C263.505 177.304 263.505 174.622 263.505 171.94C265.77 171.89 268.036 171.814 270.301 171.763C270.301 174.445 270.301 177.127 270.301 179.834ZM270.301 220.668C268.036 220.694 265.77 220.744 263.505 220.795C263.505 208.6 263.505 196.431 263.505 184.236C265.77 184.186 268.036 184.135 270.301 184.084C270.301 196.279 270.301 208.474 270.301 220.694V220.668Z" fill="#F6F6F6"/>
<path d="M293.332 193.344C293.106 191.852 292.602 190.738 291.797 190.03C290.991 189.321 289.959 188.967 288.701 188.993C287.442 188.993 286.41 189.397 285.63 190.131C284.85 190.865 284.447 191.826 284.447 192.965C284.447 193.724 284.598 194.331 284.9 194.837C285.202 195.343 285.63 195.773 286.133 196.102C286.662 196.456 287.266 196.734 287.946 196.962C288.625 197.19 289.33 197.418 290.06 197.62C290.765 197.822 291.721 198.151 292.93 198.581C294.163 199.011 295.371 199.669 296.554 200.555C297.762 201.44 298.794 202.604 299.65 204.046C300.531 205.463 300.959 207.285 300.959 209.435C300.959 211.08 300.682 212.598 300.128 214.014C299.575 215.431 298.794 216.671 297.737 217.759C296.68 218.822 295.421 219.682 293.911 220.314C292.401 220.947 290.689 221.276 288.776 221.301C287.644 221.301 286.335 221.124 284.85 220.744C283.365 220.365 281.98 219.682 280.671 218.72C279.363 217.759 278.255 216.418 277.324 214.774C276.418 213.104 275.939 211.029 275.939 208.524C278.205 208.474 280.47 208.448 282.735 208.423C282.861 210.498 283.44 212.117 284.472 213.306C285.504 214.495 286.964 215.052 288.877 215.027C290.413 215.027 291.671 214.546 292.653 213.61C293.634 212.699 294.113 211.459 294.113 209.916C294.113 209.132 293.936 208.423 293.634 207.867C293.307 207.285 292.854 206.804 292.3 206.399C291.721 205.994 291.067 205.615 290.261 205.311C289.481 204.982 288.651 204.679 287.77 204.375C286.763 204.046 285.68 203.641 284.497 203.211C283.314 202.756 282.207 202.149 281.2 201.339C280.168 200.529 279.312 199.517 278.607 198.278C277.903 197.038 277.55 195.444 277.55 193.496C277.55 192.13 277.827 190.814 278.356 189.549C278.909 188.284 279.665 187.146 280.646 186.134C281.628 185.122 282.836 184.312 284.246 183.68C285.655 183.047 287.216 182.718 288.927 182.693C289.985 182.693 291.142 182.819 292.401 183.148C293.66 183.477 294.843 184.059 295.975 184.869C297.083 185.704 298.039 186.791 298.82 188.132C299.6 189.499 300.028 191.194 300.053 193.218C297.788 193.243 295.522 193.268 293.257 193.319L293.332 193.344Z" fill="#F6F6F6"/>
<path d="M311.782 204.78C312.21 206.551 312.865 208.069 313.721 209.334C314.576 210.599 315.558 211.636 316.666 212.446C317.773 213.255 318.956 213.863 320.164 214.242C321.398 214.622 322.556 214.799 323.688 214.799C326.205 214.799 328.37 214.166 330.132 212.927C331.894 211.662 333.203 210.245 334.033 208.651C336.299 208.651 338.564 208.676 340.829 208.701C339.948 211.105 338.816 213.104 337.431 214.698C336.047 216.292 334.537 217.557 332.951 218.493C331.365 219.429 329.729 220.112 328.043 220.542C326.356 220.947 324.821 221.174 323.436 221.149C320.869 221.149 318.453 220.618 316.212 219.581C313.972 218.543 312.009 217.152 310.348 215.381C308.686 213.61 307.378 211.56 306.421 209.233C305.465 206.88 304.986 204.426 304.986 201.794C304.986 199.037 305.49 196.481 306.471 194.103C307.453 191.725 308.787 189.65 310.474 187.905C312.16 186.159 314.123 184.793 316.363 183.781C318.604 182.794 321.02 182.288 323.588 182.263C326.029 182.263 328.37 182.718 330.585 183.68C332.8 184.641 334.763 185.957 336.475 187.652C338.187 189.347 339.521 191.371 340.527 193.698C341.534 196.026 342.038 198.556 342.038 201.263C342.038 201.896 342.038 202.579 341.962 203.338C341.912 204.097 341.861 204.578 341.836 204.805C331.818 204.704 321.8 204.704 311.808 204.78H311.782ZM335.216 199.416C335.116 198.075 334.788 196.76 334.159 195.444C333.555 194.129 332.724 192.965 331.667 191.953C330.61 190.941 329.402 190.131 327.992 189.524C326.583 188.891 325.098 188.588 323.487 188.613C321.826 188.613 320.315 188.942 318.931 189.574C317.547 190.207 316.338 191.017 315.306 192.029C314.249 193.041 313.419 194.204 312.814 195.52C312.21 196.836 311.858 198.151 311.757 199.492C319.56 199.442 327.388 199.416 335.191 199.442L335.216 199.416Z" fill="#F6F6F6"/>
</g>
<rect y="8.9447" width="8.53065" height="488.379" fill="#656565"/>
<defs>
<clipPath id="clip0_71_304">
<rect width="457" height="276" fill="white" transform="translate(17.0331)"/>
</clipPath>
</defs>
</svg>
