<svg width="182" height="110" viewBox="0 0 182 110" fill="none" xmlns="http://www.w3.org/2000/svg">
<g clip-path="url(#clip0_1_32)">
<path d="M181.56 109.09C121.04 103.83 60.52 111.2 0 105.93C0 71.89 0 37.85 0 3.81001C60.52 6.97001 121.04 -2.49999 181.56 0.650007V109.08V109.09Z" fill="#00A19A"/>
<path d="M26.29 38.99C25.35 38.95 24.42 38.9 23.48 38.85V20.18C25.33 20.27 27.19 20.34 29.04 20.4C30.18 20.44 31.18 20.6 32.04 20.9C32.9 21.2 33.6 21.6 34.16 22.11C34.71 22.62 35.13 23.23 35.41 23.93C35.69 24.64 35.83 25.4 35.83 26.23C35.83 27.08 35.69 27.84 35.41 28.53C35.13 29.22 34.72 29.81 34.16 30.29C33.61 30.78 32.9 31.15 32.04 31.4C31.18 31.65 30.18 31.76 29.04 31.72C28.12 31.69 27.2 31.65 26.28 31.61V38.99H26.29ZM26.29 29.11C27.21 29.15 28.13 29.19 29.05 29.22C29.85 29.25 30.5 29.17 31.01 28.98C31.52 28.79 31.93 28.55 32.23 28.26C32.53 27.96 32.74 27.63 32.85 27.26C32.96 26.89 33.02 26.53 33.02 26.17C33.02 25.82 32.96 25.45 32.85 25.08C32.74 24.71 32.53 24.36 32.23 24.05C31.93 23.74 31.52 23.47 31.01 23.26C30.5 23.04 29.84 22.92 29.05 22.9C28.13 22.87 27.21 22.84 26.29 22.8V29.11Z" fill="#F6F6F6"/>
<path d="M40.7701 39.41C39.8701 39.4 38.9701 39.39 38.0701 39.37V20.58C38.9701 20.58 39.8701 20.59 40.7701 20.6V39.41Z" fill="#F6F6F6"/>
<path d="M56.09 39.38V37.18C56.09 37.18 56.06 37.18 56.04 37.18C55.52 38.06 54.82 38.71 53.95 39.14C53.07 39.57 52.14 39.79 51.16 39.79C49.95 39.79 48.86 39.59 47.91 39.18C46.96 38.76 46.15 38.21 45.51 37.52C44.86 36.83 44.37 36.04 44.03 35.16C43.69 34.28 43.52 33.37 43.52 32.43C43.52 31.56 43.68 30.69 43.99 29.81C44.3 28.93 44.77 28.13 45.41 27.4C46.04 26.68 46.84 26.08 47.79 25.62C48.74 25.15 49.87 24.91 51.17 24.9C52.17 24.89 53.11 25.07 53.98 25.46C54.85 25.85 55.54 26.42 56.06 27.2C56.08 27.2 56.09 27.2 56.11 27.2V25.2C57.01 25.18 57.91 25.16 58.81 25.14V39.34C57.91 39.36 57.01 39.37 56.11 39.38H56.09ZM56.14 32.31C56.14 31.56 56.01 30.87 55.75 30.26C55.49 29.64 55.13 29.12 54.68 28.68C54.23 28.24 53.7 27.91 53.09 27.67C52.48 27.43 51.83 27.32 51.14 27.33C50.31 27.34 49.58 27.51 48.97 27.83C48.35 28.15 47.84 28.56 47.42 29.05C47 29.55 46.7 30.09 46.5 30.69C46.3 31.29 46.2 31.86 46.2 32.42C46.2 33.07 46.32 33.69 46.56 34.28C46.8 34.87 47.14 35.4 47.57 35.86C48 36.32 48.52 36.69 49.13 36.96C49.74 37.24 50.39 37.37 51.11 37.37C51.82 37.37 52.48 37.23 53.09 36.95C53.7 36.68 54.23 36.31 54.68 35.86C55.13 35.4 55.49 34.87 55.75 34.26C56.01 33.65 56.14 33 56.14 32.32V32.31Z" fill="#F6F6F6"/>
<path d="M65.42 39.18C64.52 39.2 63.62 39.23 62.72 39.25V27.46C62.07 27.48 61.42 27.5 60.77 27.51V25.07C61.42 25.05 62.07 25.03 62.72 25.01V20.23C63.62 20.2 64.52 20.17 65.42 20.14V24.92C66.21 24.89 67 24.87 67.79 24.84V27.28C67 27.31 66.21 27.33 65.42 27.36V39.16V39.18Z" fill="#F6F6F6"/>
<path d="M71.58 33.02C71.75 33.7 72.01 34.28 72.35 34.76C72.69 35.24 73.08 35.63 73.52 35.93C73.96 36.23 74.43 36.45 74.91 36.58C75.4 36.71 75.86 36.77 76.31 36.75C77.31 36.71 78.17 36.44 78.87 35.92C79.57 35.4 80.09 34.83 80.42 34.19C81.32 34.15 82.22 34.12 83.12 34.08C82.77 35.03 82.32 35.82 81.77 36.47C81.21 37.11 80.62 37.63 79.99 38.03C79.36 38.43 78.71 38.72 78.04 38.9C77.37 39.09 76.76 39.19 76.21 39.21C75.19 39.25 74.23 39.08 73.34 38.7C72.45 38.33 71.67 37.81 71.01 37.14C70.35 36.47 69.83 35.69 69.45 34.79C69.07 33.89 68.88 32.94 68.88 31.92C68.88 30.86 69.08 29.86 69.47 28.93C69.86 28 70.39 27.18 71.06 26.49C71.73 25.79 72.51 25.24 73.4 24.83C74.29 24.42 75.25 24.19 76.27 24.14C77.24 24.1 78.17 24.24 79.05 24.58C79.93 24.91 80.71 25.39 81.39 26.02C82.07 26.65 82.6 27.4 83 28.28C83.4 29.16 83.6 30.13 83.6 31.18C83.6 31.42 83.6 31.69 83.57 31.98C83.55 32.27 83.54 32.47 83.52 32.55C79.54 32.72 75.56 32.87 71.59 33.01L71.58 33.02ZM80.89 30.6C80.85 30.08 80.72 29.58 80.47 29.08C80.23 28.58 79.9 28.15 79.48 27.78C79.06 27.41 78.58 27.12 78.02 26.9C77.46 26.68 76.87 26.59 76.23 26.61C75.57 26.64 74.97 26.78 74.42 27.04C73.87 27.3 73.39 27.64 72.98 28.04C72.56 28.44 72.23 28.9 71.99 29.42C71.75 29.94 71.61 30.45 71.57 30.97C74.67 30.86 77.78 30.74 80.88 30.61L80.89 30.6Z" fill="#F6F6F6"/>
<path d="M86.37 38.46V26.55C85.95 26.57 85.52 26.59 85.1 26.61C85.1 25.79 85.1 24.97 85.1 24.15C85.52 24.13 85.95 24.11 86.37 24.09V23.39C86.37 22.61 86.52 21.95 86.81 21.4C87.1 20.85 87.53 20.37 88.08 19.96C88.37 19.77 88.65 19.62 88.9 19.5C89.15 19.38 89.41 19.29 89.68 19.23C89.95 19.16 90.23 19.12 90.54 19.08C90.84 19.05 91.19 19.02 91.59 19C91.59 19.82 91.59 20.65 91.59 21.47C90.69 21.51 90.04 21.7 89.65 22.02C89.26 22.34 89.07 22.75 89.07 23.26V23.96C89.91 23.92 90.75 23.88 91.59 23.84C91.59 24.66 91.59 25.49 91.59 26.31C90.75 26.35 89.91 26.39 89.07 26.42V38.34C88.17 38.38 87.27 38.41 86.37 38.45V38.46Z" fill="#F6F6F6"/>
<path d="M107.77 30.33C107.77 31.22 107.59 32.13 107.24 33.05C106.88 33.97 106.38 34.81 105.72 35.57C105.06 36.33 104.25 36.96 103.28 37.46C102.31 37.97 101.22 38.24 100 38.29C98.79 38.34 97.7 38.15 96.74 37.72C95.78 37.3 94.96 36.74 94.3 36.03C93.63 35.33 93.12 34.53 92.77 33.63C92.41 32.73 92.24 31.83 92.24 30.91C92.24 29.92 92.43 28.97 92.82 28.05C93.21 27.13 93.75 26.31 94.44 25.6C95.13 24.88 95.95 24.29 96.9 23.83C97.84 23.37 98.88 23.11 100.01 23.06C101.1 23.01 102.12 23.17 103.06 23.53C104 23.89 104.83 24.4 105.53 25.06C106.23 25.72 106.78 26.51 107.18 27.42C107.58 28.33 107.78 29.3 107.78 30.33H107.77ZM105.07 30.44C105.07 29.79 104.95 29.17 104.71 28.57C104.47 27.97 104.13 27.44 103.68 26.98C103.24 26.52 102.71 26.16 102.08 25.9C101.46 25.64 100.76 25.53 100 25.56C99.24 25.59 98.54 25.77 97.92 26.08C97.3 26.39 96.76 26.8 96.32 27.3C95.88 27.8 95.53 28.36 95.29 28.99C95.05 29.62 94.93 30.25 94.93 30.89C94.93 31.55 95.05 32.18 95.29 32.78C95.53 33.38 95.88 33.91 96.33 34.38C96.78 34.85 97.31 35.21 97.93 35.48C98.54 35.74 99.23 35.86 100 35.83C100.73 35.8 101.4 35.64 102.01 35.33C102.62 35.03 103.16 34.63 103.62 34.13C104.08 33.63 104.43 33.07 104.69 32.43C104.94 31.79 105.07 31.13 105.07 30.45V30.44Z" fill="#F6F6F6"/>
<path d="M110.53 37.55V23.02C111.37 22.99 112.21 22.96 113.05 22.93V24.24C113.05 24.24 113.08 24.24 113.1 24.24C113.38 23.83 113.69 23.5 114.05 23.26C114.41 23.02 114.76 22.84 115.1 22.71C115.45 22.58 115.77 22.5 116.06 22.47C116.35 22.43 116.59 22.41 116.76 22.41V25.22C116.55 25.22 116.26 25.28 115.88 25.38C115.5 25.48 115.14 25.62 114.81 25.81C114.38 26.07 114 26.49 113.69 27.07C113.38 27.65 113.22 28.46 113.22 29.51V37.47C112.32 37.5 111.42 37.52 110.52 37.55H110.53Z" fill="#F6F6F6"/>
<path d="M138.66 37.14C138.66 34.41 138.66 31.69 138.66 28.96C138.66 28.64 138.63 28.23 138.58 27.74C138.53 27.24 138.39 26.76 138.18 26.29C137.96 25.82 137.63 25.41 137.17 25.07C136.71 24.72 136.07 24.55 135.26 24.56C134.39 24.56 133.73 24.74 133.27 25.09C132.81 25.44 132.47 25.85 132.26 26.32C132.04 26.79 131.92 27.27 131.88 27.77C131.85 28.26 131.83 28.66 131.83 28.96V37.14C130.93 37.14 130.03 37.15 129.13 37.16C129.13 34.45 129.13 31.73 129.13 29.02C129.15 28.4 129.13 27.87 129.07 27.42C129.01 26.97 128.83 26.5 128.54 26.01C128.19 25.49 127.79 25.13 127.32 24.95C126.85 24.76 126.37 24.68 125.86 24.69C124.98 24.71 124.29 24.9 123.81 25.26C123.32 25.62 122.97 26.04 122.74 26.52C122.51 27 122.38 27.49 122.35 27.98C122.32 28.47 122.3 28.85 122.3 29.11V37.26C121.4 37.28 120.5 37.3 119.6 37.32V22.73C120.43 22.71 121.26 22.68 122.1 22.66V24.24C122.1 24.24 122.13 24.24 122.15 24.24C122.27 24.08 122.43 23.89 122.63 23.66C122.83 23.44 123.09 23.21 123.41 23C123.73 22.78 124.12 22.59 124.58 22.43C125.04 22.27 125.61 22.18 126.28 22.17C126.71 22.17 127.15 22.21 127.61 22.3C128.06 22.4 128.49 22.54 128.9 22.74C129.31 22.94 129.67 23.19 129.99 23.49C130.31 23.79 130.57 24.15 130.76 24.55C130.88 24.37 131.05 24.14 131.25 23.86C131.46 23.58 131.74 23.3 132.11 23.03C132.47 22.76 132.93 22.53 133.48 22.34C134.03 22.15 134.71 22.05 135.52 22.05C136.73 22.05 137.76 22.28 138.61 22.75C139.46 23.22 140.12 23.87 140.59 24.71C141.13 25.71 141.4 26.9 141.4 28.3V37.18C140.5 37.17 139.6 37.16 138.7 37.15L138.66 37.14Z" fill="#F6F6F6"/>
<path d="M146.79 31.09C146.96 31.8 147.22 32.42 147.56 32.93C147.9 33.44 148.29 33.87 148.73 34.22C149.17 34.56 149.64 34.82 150.12 34.98C150.61 35.15 151.07 35.24 151.52 35.26C152.53 35.3 153.38 35.08 154.08 34.6C154.78 34.12 155.3 33.57 155.63 32.94C156.53 32.98 157.43 33.03 158.33 33.07C157.98 34.02 157.53 34.79 156.98 35.41C156.42 36.02 155.83 36.51 155.2 36.86C154.57 37.21 153.92 37.46 153.25 37.6C152.58 37.74 151.97 37.8 151.42 37.78C150.4 37.74 149.44 37.5 148.55 37.06C147.66 36.62 146.88 36.03 146.22 35.31C145.56 34.58 145.04 33.75 144.66 32.8C144.28 31.85 144.09 30.86 144.09 29.81C144.09 28.71 144.28 27.69 144.67 26.75C145.06 25.81 145.59 24.99 146.26 24.32C146.93 23.64 147.71 23.11 148.6 22.74C149.49 22.37 150.45 22.2 151.47 22.23C152.44 22.26 153.37 22.48 154.25 22.9C155.13 23.32 155.91 23.88 156.59 24.59C157.27 25.3 157.8 26.13 158.2 27.08C158.6 28.03 158.8 29.05 158.8 30.14C158.8 30.39 158.8 30.67 158.77 30.97C158.75 31.27 158.73 31.47 158.72 31.56C154.74 31.35 150.76 31.2 146.79 31.11V31.09ZM156.1 29.28C156.06 28.74 155.93 28.21 155.68 27.67C155.44 27.13 155.11 26.66 154.69 26.24C154.27 25.82 153.79 25.48 153.23 25.21C152.67 24.94 152.08 24.8 151.44 24.78C150.78 24.76 150.18 24.87 149.63 25.1C149.08 25.33 148.6 25.65 148.19 26.04C147.77 26.43 147.44 26.88 147.2 27.4C146.96 27.92 146.82 28.44 146.78 28.98C149.88 29.05 152.98 29.15 156.09 29.29L156.1 29.28Z" fill="#F6F6F6"/>
<path d="M38.15 49.36C38.01 49.2 37.79 48.98 37.5 48.67C37.21 48.37 36.84 48.06 36.39 47.75C35.95 47.44 35.42 47.17 34.82 46.95C34.21 46.72 33.52 46.59 32.74 46.57C31.73 46.54 30.8 46.69 29.93 47.03C29.06 47.37 28.31 47.85 27.67 48.46C27.03 49.07 26.52 49.8 26.15 50.66C25.78 51.52 25.59 52.43 25.59 53.41C25.59 54.42 25.79 55.37 26.18 56.27C26.57 57.17 27.09 57.96 27.74 58.65C28.39 59.34 29.14 59.9 30 60.32C30.86 60.74 31.76 60.97 32.69 61.01C33.71 61.05 34.68 60.86 35.59 60.45C36.5 60.03 37.28 59.45 37.94 58.71C39.09 58.74 40.25 58.77 41.4 58.79C40.86 59.69 40.25 60.46 39.55 61.09C38.86 61.72 38.12 62.21 37.35 62.58C36.58 62.95 35.79 63.2 34.98 63.35C34.17 63.5 33.4 63.56 32.65 63.53C31.28 63.47 30 63.15 28.8 62.57C27.6 61.99 26.56 61.22 25.67 60.28C24.78 59.34 24.07 58.26 23.55 57.05C23.03 55.84 22.77 54.57 22.77 53.24C22.77 51.88 23.03 50.63 23.56 49.49C24.09 48.35 24.8 47.38 25.71 46.56C26.61 45.74 27.66 45.11 28.86 44.68C30.06 44.24 31.33 44.05 32.68 44.09C33.04 44.1 33.46 44.14 33.91 44.2C34.37 44.26 34.86 44.37 35.38 44.52C35.9 44.67 36.43 44.87 36.97 45.12C37.51 45.37 38.04 45.69 38.56 46.07C39.43 46.7 40.08 47.31 40.51 47.91C40.94 48.51 41.28 49.02 41.52 49.45C40.39 49.43 39.27 49.41 38.14 49.39L38.15 49.36Z" fill="#F6F6F6"/>
<path d="M46.57 47.77C45.67 47.77 44.77 47.76 43.87 47.75V44.64C44.77 44.64 45.67 44.65 46.57 44.66V47.77ZM46.57 63.52C45.67 63.51 44.77 63.5 43.87 63.48V49.38C44.77 49.38 45.67 49.4 46.57 49.4V63.52Z" fill="#F6F6F6"/>
<path d="M53.07 63.56C52.17 63.56 51.27 63.56 50.37 63.56V51.84C49.72 51.84 49.07 51.84 48.42 51.84C48.42 51.03 48.42 50.22 48.42 49.42C49.07 49.42 49.72 49.42 50.37 49.42V44.67C51.27 44.67 52.17 44.67 53.07 44.65V49.41C53.86 49.41 54.65 49.4 55.44 49.39V51.82C54.65 51.82 53.86 51.83 53.07 51.84V63.57V63.56Z" fill="#F6F6F6"/>
<path d="M72.05 56.14C72.05 57.02 71.87 57.91 71.52 58.81C71.16 59.71 70.66 60.53 70 61.27C69.34 62.01 68.53 62.61 67.56 63.09C66.59 63.57 65.5 63.82 64.28 63.84C63.07 63.86 61.98 63.64 61.02 63.2C60.06 62.76 59.24 62.18 58.58 61.47C57.91 60.76 57.4 59.95 57.05 59.06C56.69 58.17 56.52 57.27 56.52 56.36C56.52 55.39 56.71 54.46 57.11 53.56C57.5 52.67 58.04 51.88 58.73 51.2C59.42 50.52 60.24 49.96 61.19 49.53C62.13 49.1 63.17 48.88 64.3 48.86C65.39 48.84 66.41 49.01 67.35 49.38C68.29 49.75 69.12 50.27 69.82 50.93C70.52 51.59 71.07 52.37 71.47 53.27C71.87 54.17 72.07 55.13 72.07 56.14H72.05ZM69.35 56.21C69.35 55.57 69.23 54.96 68.99 54.36C68.75 53.77 68.4 53.24 67.96 52.77C67.52 52.31 66.99 51.94 66.36 51.67C65.74 51.4 65.04 51.27 64.28 51.29C63.52 51.31 62.82 51.46 62.2 51.75C61.58 52.04 61.04 52.43 60.6 52.9C60.16 53.38 59.82 53.92 59.57 54.53C59.33 55.14 59.21 55.76 59.21 56.39C59.21 57.04 59.33 57.66 59.57 58.26C59.81 58.86 60.16 59.39 60.61 59.86C61.06 60.33 61.59 60.71 62.21 60.98C62.83 61.25 63.51 61.39 64.28 61.37C65.01 61.36 65.68 61.21 66.29 60.93C66.9 60.65 67.44 60.26 67.9 59.78C68.36 59.3 68.71 58.75 68.97 58.12C69.22 57.5 69.35 56.85 69.35 56.18V56.21Z" fill="#F6F6F6"/>
<path d="M79.25 67.95C78.31 67.97 77.38 67.99 76.44 68.02C77.14 66.32 77.84 64.61 78.55 62.9C76.63 58.27 74.72 53.65 72.8 49.04C73.77 49.01 74.74 48.98 75.71 48.95C77.12 52.61 78.53 56.27 79.95 59.94C81.4 56.19 82.84 52.43 84.29 48.67C85.26 48.64 86.23 48.6 87.2 48.57C84.55 55.06 81.9 61.52 79.24 67.96L79.25 67.95Z" fill="#F6F6F6"/>
<path d="M90.66 56.81C90.83 57.5 91.09 58.08 91.43 58.57C91.77 59.05 92.16 59.45 92.6 59.76C93.04 60.07 93.51 60.29 93.99 60.42C94.48 60.55 94.94 60.61 95.39 60.6C96.4 60.57 97.25 60.3 97.95 59.78C98.65 59.26 99.17 58.69 99.5 58.05C100.4 58.02 101.3 58 102.2 57.97C101.85 58.92 101.4 59.72 100.85 60.36C100.29 61 99.7 61.52 99.07 61.91C98.44 62.3 97.79 62.59 97.12 62.77C96.45 62.95 95.84 63.05 95.29 63.07C94.27 63.1 93.31 62.92 92.42 62.54C91.53 62.16 90.75 61.63 90.09 60.96C89.43 60.29 88.91 59.5 88.53 58.59C88.15 57.68 87.96 56.72 87.96 55.7C87.96 54.63 88.16 53.62 88.55 52.68C88.94 51.74 89.47 50.92 90.14 50.22C90.81 49.52 91.59 48.97 92.48 48.55C93.37 48.14 94.33 47.91 95.35 47.88C96.32 47.85 97.25 48 98.13 48.34C99.01 48.68 99.79 49.17 100.47 49.81C101.15 50.45 101.68 51.22 102.08 52.11C102.48 53 102.68 53.98 102.68 55.05C102.68 55.29 102.68 55.56 102.65 55.86C102.63 56.16 102.61 56.35 102.6 56.44C98.62 56.55 94.64 56.68 90.67 56.81H90.66ZM99.97 54.43C99.93 53.91 99.8 53.4 99.55 52.89C99.31 52.38 98.98 51.94 98.56 51.56C98.14 51.18 97.66 50.88 97.1 50.66C96.55 50.44 95.95 50.33 95.31 50.36C94.65 50.38 94.05 50.52 93.5 50.79C92.95 51.05 92.47 51.38 92.06 51.79C91.64 52.19 91.31 52.66 91.07 53.18C90.83 53.7 90.69 54.22 90.65 54.74C93.75 54.64 96.86 54.54 99.96 54.44L99.97 54.43Z" fill="#F6F6F6"/>
<path d="M115.44 62.23V54.32C115.44 54.04 115.42 53.65 115.39 53.14C115.35 52.63 115.23 52.13 115 51.64C114.77 51.15 114.42 50.72 113.93 50.36C113.44 50 112.75 49.84 111.85 49.86C110.71 49.89 109.79 50.3 109.09 51.09C108.4 51.88 108.05 53 108.05 54.47V62.38C107.15 62.4 106.25 62.42 105.35 62.44C105.35 57.61 105.35 52.78 105.35 47.94C106.19 47.91 107.03 47.89 107.87 47.86V49.41C107.87 49.41 107.9 49.41 107.92 49.41C108.28 48.91 108.68 48.52 109.12 48.25C109.55 47.98 109.97 47.77 110.37 47.64C110.77 47.51 111.13 47.43 111.45 47.4C111.77 47.37 112 47.36 112.14 47.36C113.27 47.33 114.27 47.53 115.14 47.97C116.01 48.41 116.71 49.03 117.23 49.84C117.52 50.31 117.75 50.84 117.89 51.43C118.04 52.02 118.12 52.73 118.14 53.56V62.19C117.24 62.2 116.34 62.22 115.44 62.23Z" fill="#F6F6F6"/>
<path d="M131.66 62.13V54.16C131.66 53.88 131.64 53.48 131.61 52.97C131.57 52.46 131.44 51.95 131.22 51.45C130.99 50.95 130.64 50.51 130.15 50.14C129.66 49.77 128.97 49.59 128.07 49.59C126.93 49.59 126.01 49.99 125.31 50.77C124.62 51.55 124.27 52.68 124.27 54.16V62.13C123.37 62.13 122.47 62.14 121.57 62.15V47.55C122.41 47.54 123.25 47.53 124.09 47.51V49.07C124.09 49.07 124.12 49.07 124.14 49.07C124.5 48.57 124.9 48.19 125.34 47.92C125.77 47.65 126.19 47.45 126.59 47.33C126.99 47.2 127.35 47.13 127.67 47.11C127.99 47.09 128.22 47.08 128.36 47.08C129.49 47.08 130.49 47.3 131.36 47.76C132.23 48.22 132.93 48.86 133.45 49.7C133.75 50.18 133.97 50.72 134.11 51.32C134.26 51.92 134.34 52.64 134.36 53.47V62.16C133.46 62.16 132.56 62.14 131.66 62.14V62.13Z" fill="#F6F6F6"/>
<path d="M139.8 56.07C139.97 56.78 140.23 57.39 140.57 57.9C140.91 58.41 141.3 58.84 141.74 59.18C142.18 59.52 142.65 59.77 143.13 59.93C143.62 60.09 144.08 60.18 144.53 60.2C145.54 60.23 146.39 60.01 147.09 59.53C147.79 59.05 148.31 58.5 148.64 57.87C149.54 57.91 150.44 57.94 151.34 57.98C150.99 58.93 150.54 59.71 149.99 60.32C149.44 60.94 148.84 61.42 148.21 61.78C147.58 62.14 146.93 62.39 146.26 62.53C145.59 62.67 144.98 62.74 144.43 62.72C143.41 62.69 142.45 62.45 141.56 62.01C140.67 61.57 139.89 60.99 139.23 60.27C138.57 59.55 138.05 58.72 137.67 57.77C137.29 56.83 137.1 55.83 137.1 54.79C137.1 53.69 137.29 52.67 137.68 51.73C138.07 50.79 138.6 49.98 139.27 49.3C139.94 48.62 140.72 48.09 141.61 47.72C142.5 47.35 143.46 47.17 144.48 47.2C145.45 47.22 146.38 47.44 147.26 47.85C148.14 48.26 148.92 48.82 149.6 49.52C150.28 50.22 150.81 51.04 151.21 51.99C151.61 52.93 151.81 53.95 151.81 55.03C151.81 55.28 151.81 55.55 151.78 55.86C151.76 56.16 151.75 56.36 151.73 56.44C147.75 56.26 143.77 56.13 139.8 56.06V56.07ZM149.11 54.21C149.08 53.68 148.94 53.14 148.69 52.61C148.45 52.08 148.12 51.6 147.7 51.19C147.28 50.78 146.8 50.44 146.24 50.17C145.68 49.9 145.09 49.76 144.45 49.75C143.79 49.73 143.19 49.84 142.64 50.08C142.09 50.32 141.61 50.63 141.2 51.02C140.78 51.41 140.45 51.87 140.21 52.38C139.97 52.9 139.83 53.42 139.79 53.95C142.89 54 145.99 54.09 149.1 54.21H149.11Z" fill="#F6F6F6"/>
<path d="M34.48 87.18C34.48 84.46 34.48 81.74 34.48 79.02C31.84 78.9 29.19 78.76 26.55 78.59V86.72C25.61 86.66 24.68 86.59 23.74 86.52C23.74 80.3 23.74 74.07 23.74 67.85C24.68 67.91 25.61 67.97 26.55 68.03V76.09C29.19 76.26 31.84 76.4 34.48 76.51C34.48 73.81 34.48 71.12 34.48 68.42C35.42 68.46 36.35 68.49 37.29 68.52V87.3C36.35 87.26 35.42 87.22 34.48 87.17V87.18Z" fill="#F6F6F6"/>
<path d="M45.92 92.3C44.98 92.28 44.05 92.25 43.11 92.22C43.81 90.58 44.51 88.94 45.22 87.29C43.3 82.63 41.39 77.97 39.47 73.32C40.44 73.35 41.41 73.38 42.38 73.4C43.79 77.08 45.21 80.76 46.62 84.45C48.07 80.83 49.51 77.19 50.96 73.54C51.93 73.54 52.9 73.55 53.87 73.56C51.22 79.85 48.57 86.1 45.91 92.31L45.92 92.3Z" fill="#F6F6F6"/>
<path d="M57.85 81.8C58.02 82.48 58.28 83.07 58.62 83.56C58.96 84.05 59.35 84.45 59.79 84.77C60.23 85.09 60.7 85.32 61.18 85.46C61.66 85.6 62.13 85.68 62.58 85.68C63.58 85.68 64.44 85.43 65.14 84.94C65.84 84.45 66.36 83.89 66.69 83.27C67.59 83.27 68.49 83.25 69.39 83.24C69.04 84.17 68.59 84.95 68.04 85.57C67.49 86.19 66.89 86.69 66.26 87.06C65.63 87.43 64.98 87.7 64.31 87.87C63.64 88.03 63.03 88.12 62.48 88.12C61.46 88.12 60.5 87.92 59.61 87.52C58.72 87.12 57.94 86.57 57.28 85.89C56.62 85.2 56.1 84.41 55.72 83.5C55.34 82.59 55.15 81.64 55.15 80.63C55.15 79.57 55.34 78.59 55.74 77.68C56.13 76.77 56.66 75.98 57.33 75.31C58 74.64 58.78 74.12 59.67 73.74C60.56 73.36 61.52 73.17 62.54 73.16C63.51 73.16 64.44 73.33 65.32 73.69C66.2 74.05 66.98 74.55 67.66 75.19C68.34 75.83 68.87 76.6 69.27 77.49C69.67 78.38 69.87 79.35 69.87 80.39C69.87 80.63 69.87 80.9 69.84 81.19C69.82 81.48 69.8 81.67 69.79 81.76C65.81 81.81 61.83 81.83 57.86 81.82L57.85 81.8ZM67.16 79.71C67.13 79.2 66.99 78.69 66.74 78.18C66.5 77.68 66.17 77.23 65.75 76.85C65.33 76.47 64.85 76.16 64.29 75.93C63.73 75.7 63.14 75.58 62.5 75.58C61.84 75.58 61.24 75.71 60.69 75.95C60.14 76.19 59.66 76.51 59.25 76.89C58.83 77.28 58.5 77.72 58.26 78.22C58.02 78.72 57.88 79.23 57.84 79.74C60.94 79.74 64.05 79.73 67.15 79.69L67.16 79.71ZM59.54 70.16C61.47 69.05 63.41 67.94 65.34 66.82C65.72 67.51 66.1 68.2 66.48 68.89C64.53 69.96 62.58 71.03 60.63 72.08C60.27 71.44 59.9 70.8 59.54 70.16Z" fill="#F6F6F6"/>
<path d="M72.5701 87.68V73.39C73.4101 73.38 74.2501 73.36 75.0901 73.34C75.0901 73.77 75.0901 74.2 75.0901 74.63C75.1101 74.63 75.1201 74.63 75.1401 74.63C75.4201 74.23 75.7301 73.91 76.0901 73.68C76.4401 73.45 76.8001 73.27 77.1401 73.15C77.4901 73.03 77.8101 72.95 78.1001 72.92C78.3901 72.89 78.6301 72.87 78.8001 72.87V75.64C78.5901 75.64 78.3001 75.69 77.9201 75.79C77.5401 75.88 77.1801 76.02 76.8501 76.2C76.4201 76.45 76.0401 76.86 75.7301 77.42C75.4201 77.99 75.2601 78.78 75.2601 79.82V87.64C74.3601 87.65 73.4601 87.66 72.5601 87.67L72.5701 87.68Z" fill="#F6F6F6"/>
<path d="M95.16 80.05C95.16 80.94 94.98 81.83 94.63 82.74C94.27 83.65 93.77 84.48 93.11 85.22C92.45 85.96 91.64 86.57 90.67 87.06C89.7 87.55 88.61 87.8 87.39 87.82C86.18 87.84 85.09 87.63 84.13 87.19C83.17 86.75 82.35 86.17 81.69 85.46C81.02 84.75 80.51 83.94 80.16 83.04C79.8 82.14 79.63 81.23 79.63 80.32C79.63 79.34 79.82 78.39 80.21 77.49C80.6 76.59 81.14 75.78 81.83 75.09C82.52 74.39 83.34 73.83 84.29 73.39C85.23 72.95 86.27 72.72 87.4 72.69C88.49 72.66 89.51 72.84 90.45 73.21C91.39 73.59 92.22 74.11 92.92 74.78C93.62 75.45 94.17 76.24 94.57 77.15C94.97 78.06 95.17 79.03 95.17 80.05H95.16ZM92.46 80.1C92.46 79.46 92.34 78.84 92.1 78.23C91.86 77.63 91.52 77.09 91.07 76.63C90.63 76.16 90.1 75.79 89.47 75.52C88.85 75.25 88.15 75.12 87.39 75.14C86.63 75.16 85.93 75.32 85.31 75.62C84.69 75.92 84.15 76.31 83.71 76.8C83.27 77.29 82.92 77.84 82.68 78.45C82.44 79.07 82.32 79.7 82.32 80.34C82.32 81 82.44 81.62 82.68 82.22C82.92 82.82 83.27 83.36 83.72 83.83C84.17 84.31 84.7 84.68 85.32 84.95C85.93 85.22 86.62 85.35 87.39 85.34C88.12 85.33 88.79 85.18 89.4 84.89C90.01 84.6 90.55 84.21 91.01 83.73C91.47 83.24 91.82 82.69 92.08 82.06C92.33 81.43 92.46 80.78 92.46 80.1Z" fill="#F6F6F6"/>
<path d="M100.62 71.08C99.72 71.1 98.82 71.12 97.92 71.14C97.92 70.08 97.92 69.02 97.92 67.96C98.82 67.94 99.72 67.91 100.62 67.89C100.62 68.95 100.62 70.01 100.62 71.08ZM100.62 87.22C99.72 87.23 98.82 87.25 97.92 87.27C97.92 82.45 97.92 77.64 97.92 72.82C98.82 72.8 99.72 72.78 100.62 72.76C100.62 77.58 100.62 82.4 100.62 87.23V87.22Z" fill="#F6F6F6"/>
<path d="M109.77 76.42C109.68 75.83 109.48 75.39 109.16 75.11C108.84 74.83 108.43 74.69 107.93 74.7C107.43 74.7 107.02 74.86 106.71 75.15C106.4 75.44 106.24 75.82 106.24 76.27C106.24 76.57 106.3 76.81 106.42 77.01C106.54 77.21 106.71 77.38 106.91 77.51C107.12 77.65 107.36 77.76 107.63 77.85C107.9 77.94 108.18 78.03 108.47 78.11C108.75 78.19 109.13 78.32 109.61 78.49C110.1 78.66 110.58 78.92 111.05 79.27C111.53 79.62 111.94 80.08 112.28 80.65C112.63 81.21 112.8 81.93 112.8 82.78C112.8 83.43 112.69 84.03 112.47 84.59C112.25 85.15 111.94 85.64 111.52 86.07C111.1 86.49 110.6 86.83 110 87.08C109.4 87.33 108.72 87.46 107.96 87.47C107.51 87.47 106.99 87.4 106.4 87.25C105.81 87.1 105.26 86.83 104.74 86.45C104.22 86.07 103.78 85.54 103.41 84.89C103.05 84.23 102.86 83.41 102.86 82.42C103.76 82.4 104.66 82.39 105.56 82.38C105.61 83.2 105.84 83.84 106.25 84.31C106.66 84.78 107.24 85 108 84.99C108.61 84.99 109.11 84.8 109.5 84.43C109.89 84.07 110.08 83.58 110.08 82.97C110.08 82.66 110.01 82.38 109.89 82.16C109.76 81.93 109.58 81.74 109.36 81.58C109.13 81.42 108.87 81.27 108.55 81.15C108.24 81.02 107.91 80.9 107.56 80.78C107.16 80.65 106.73 80.49 106.26 80.32C105.79 80.14 105.35 79.9 104.95 79.58C104.54 79.26 104.2 78.86 103.92 78.37C103.64 77.88 103.5 77.25 103.5 76.48C103.5 75.94 103.61 75.42 103.82 74.92C104.04 74.42 104.34 73.97 104.73 73.57C105.12 73.17 105.6 72.85 106.16 72.6C106.72 72.35 107.34 72.22 108.02 72.21C108.44 72.21 108.9 72.26 109.4 72.39C109.9 72.52 110.37 72.75 110.82 73.07C111.26 73.4 111.64 73.83 111.95 74.36C112.26 74.9 112.43 75.57 112.44 76.37C111.54 76.38 110.64 76.39 109.74 76.41L109.77 76.42Z" fill="#F6F6F6"/>
<path d="M117.1 80.94C117.27 81.64 117.53 82.24 117.87 82.74C118.21 83.24 118.6 83.65 119.04 83.97C119.48 84.29 119.95 84.53 120.43 84.68C120.92 84.83 121.38 84.9 121.83 84.9C122.83 84.9 123.69 84.65 124.39 84.16C125.09 83.66 125.61 83.1 125.94 82.47C126.84 82.47 127.74 82.48 128.64 82.49C128.29 83.44 127.84 84.23 127.29 84.86C126.74 85.49 126.14 85.99 125.51 86.36C124.88 86.73 124.23 87 123.56 87.17C122.89 87.33 122.28 87.42 121.73 87.41C120.71 87.41 119.75 87.2 118.86 86.79C117.97 86.38 117.19 85.83 116.53 85.13C115.87 84.43 115.35 83.62 114.97 82.7C114.59 81.77 114.4 80.8 114.4 79.76C114.4 78.67 114.6 77.66 114.99 76.72C115.38 75.78 115.91 74.96 116.58 74.27C117.25 73.58 118.03 73.04 118.92 72.64C119.81 72.25 120.77 72.05 121.79 72.04C122.76 72.04 123.69 72.22 124.57 72.6C125.45 72.98 126.23 73.5 126.91 74.17C127.59 74.84 128.12 75.64 128.52 76.56C128.92 77.48 129.12 78.48 129.12 79.55C129.12 79.8 129.12 80.07 129.09 80.37C129.07 80.67 129.05 80.86 129.04 80.95C125.06 80.91 121.08 80.91 117.11 80.94H117.1ZM126.41 78.82C126.37 78.29 126.24 77.77 125.99 77.25C125.75 76.73 125.42 76.27 125 75.87C124.58 75.47 124.1 75.15 123.54 74.91C122.98 74.66 122.39 74.54 121.75 74.55C121.09 74.55 120.49 74.68 119.94 74.93C119.39 75.18 118.91 75.5 118.5 75.9C118.08 76.3 117.75 76.76 117.51 77.28C117.27 77.8 117.13 78.32 117.09 78.85C120.19 78.83 123.3 78.82 126.4 78.83L126.41 78.82Z" fill="#F6F6F6"/>
</g>
<defs>
<clipPath id="clip0_1_32">
<rect width="181.56" height="109.09" fill="white"/>
</clipPath>
</defs>
</svg>
